<?xml version="1.0" encoding="UTF-8" standalone="no"?>
<!-- Created with Inkscape (http://www.inkscape.org/) -->

<svg
   version="1.1"
   id="svg1"
   width="583.09467"
   height="155.528"
   viewBox="0 0 583.09467 155.528"
   sodipodi:docname="upload_q2khesgo2nn4gzpjdhifgjqgxg.pdf"
   xmlns:inkscape="http://www.inkscape.org/namespaces/inkscape"
   xmlns:sodipodi="http://sodipodi.sourceforge.net/DTD/sodipodi-0.dtd"
   xmlns="http://www.w3.org/2000/svg"
   xmlns:svg="http://www.w3.org/2000/svg">
  <defs
     id="defs1" />
  <sodipodi:namedview
     id="namedview1"
     pagecolor="#ffffff"
     bordercolor="#000000"
     borderopacity="0.25"
     inkscape:showpageshadow="2"
     inkscape:pageopacity="0.0"
     inkscape:pagecheckerboard="0"
     inkscape:deskcolor="#d1d1d1">
    <inkscape:page
       x="0"
       y="0"
       inkscape:label="1"
       id="page1"
       width="583.09467"
       height="155.528"
       margin="0"
       bleed="0" />
  </sodipodi:namedview>
  <g
     id="g1"
     inkscape:groupmode="layer"
     inkscape:label="1">
    <path
       id="path1"
       d="m 28.19261,9.21262 h -56.38522 c -1.65071,0 -2.98883,-1.33812 -2.98883,-2.98883 V -6.22379 c 0,-1.65071 1.33812,-2.98883 2.98883,-2.98883 h 56.38522 c 1.65071,0 2.98883,1.33812 2.98883,2.98883 V 6.22379 c 0,1.65071 -1.33812,2.98883 -2.98883,2.98883 z"
       style="fill:none;stroke:#000000;stroke-width:0.3985;stroke-linecap:butt;stroke-linejoin:miter;stroke-miterlimit:10;stroke-dasharray:none;stroke-opacity:1"
       transform="matrix(1.3333333,0,0,-1.3333333,48.482667,74.225333)" />
    <path
       id="path2"
       d="m 2.0403359,-5.497125 c 0,-0.3046875 0.023437,-0.375 0.4453125,-0.375 h 1.171875 c 0.8789063,0 1.2539063,0.703125 1.2539063,1.2421875 0,0.6914062 -0.609375,1.3125 -1.453125,1.3125 H 2.0403359 Z m 2.203125,2.2851562 c 0.9023438,-0.1875 1.5234375,-0.75 1.5234375,-1.4179687 0,-0.7851563 -0.8554687,-1.5234375 -2.0507812,-1.5234375 H 0.36455469 v 0.28125 h 0.2109375 c 0.69140621,0 0.71484371,0.1054687 0.71484371,0.4335937 v 4.7226563 c 0,0.33984375 -0.023437,0.43359375 -0.71484371,0.43359375 h -0.2109375 v 0.28125 H 3.9739297 c 1.2070312,0 2.0625,-0.796875 2.0625,-1.64062505 0,-0.8085937 -0.7851563,-1.4648437 -1.7929688,-1.5703125 z m -1.7578125,2.92968755 c -0.421875,0 -0.4453125,-0.0585938 -0.4453125,-0.36328125 v -2.4375 h 1.6992188 c 1.0546875,0 1.40625,0.8789062 1.40625,1.4296875 0,0.69140625 -0.5507813,1.37109375 -1.4765625,1.37109375 z M 9.6340859,-0.6455625 c 0.035156,0.375 0.3046875,0.703125 0.6914061,0.703125 0.222656,0 0.785156,-0.140625 0.785156,-0.85546875 V -1.3018125 h -0.246093 v 0.4921875 c 0,0.09375 0,0.55078125 -0.328125,0.55078125 -0.316407,0 -0.316407,-0.43359375 -0.316407,-0.57421875 v -1.5820313 c 0,-0.515625 0,-0.8203125 -0.4101558,-1.1835937 -0.328125,-0.3046875 -0.7617188,-0.4335938 -1.21875,-0.4335938 -0.75,0 -1.3828125,0.375 -1.3828125,0.9492188 0,0.28125 0.1875,0.4335937 0.421875,0.4335937 0.2460937,0 0.4101562,-0.1757812 0.4101562,-0.4101562 0,-0.3867188 -0.3867187,-0.4335938 -0.3984375,-0.4335938 0.2460938,-0.234375 0.6796875,-0.3164062 0.9375,-0.3164062 0.4570313,0 0.9726563,0.3398437 0.9726563,1.1367187 v 0.2929688 C 9.0598672,-2.3565 8.3918984,-2.309625 7.7825234,-2.028375 c -0.6445312,0.3164062 -0.84375,0.7851562 -0.84375,1.1484375 0,0.73828125 0.8789063,0.97265625 1.4765625,0.97265625 0.75,0 1.0898438,-0.4921875 1.21875,-0.73828125 z m -0.082031,-0.6210938 c 0,0.86718755 -0.6796875,1.1367188 -1.078125,1.1367188 -0.421875,0 -0.8203125,-0.3046875 -0.8203125,-0.75 0,-0.5976563 0.515625,-1.2304688 1.8984375,-1.2773438 z M 12.78057,-1.9580625 V -6.247125 l -1.335937,0.09375 v 0.28125 c 0.609375,0 0.691406,0.070312 0.691406,0.5039062 v 4.6757813 c 0,0.41015625 -0.09375,0.41015625 -0.691406,0.41015625 v 0.28125 c 0.398437,-0.0234375 0.621094,-0.0234375 0.996094,-0.0234375 0.375,0 0.597656,0 1.007812,0.0234375 v -0.28125 c -0.597656,0 -0.703125,0 -0.703125,-0.41015625 V -1.6065 l 0.585938,-0.4804688 0.867187,1.17187505 c 0.140625,0.19921875 0.210938,0.31640625 0.210938,0.43359375 0,0.09375 -0.02344,0.19921875 -0.304688,0.19921875 v 0.28125 c 0.410156,-0.0234375 0.621094,-0.0234375 0.972656,-0.0234375 0.269532,0 0.550782,0 0.808594,0.0234375 v -0.28125 c -0.292969,0 -0.503906,-0.0117188 -0.832031,-0.43359375 L 13.776664,-2.4619688 C 14.65557,-3.2236875 15.077445,-3.57525 15.68682,-3.5986875 v -0.28125 C 15.370414,-3.8565 15.346977,-3.8565 15.018852,-3.8565 c -0.269532,0 -0.503907,0 -0.996094,-0.023437 v 0.28125 c 0.140625,0.011719 0.246094,0.070312 0.246094,0.2109375 0,0.1757812 -0.140625,0.2929687 -0.222657,0.3632812 z m 6.615235,-0.1054688 c 0.199218,0 0.246093,0 0.246093,-0.1875 0,-0.9257812 -0.503906,-1.78125 -1.652343,-1.78125 -1.089844,0 -1.933594,0.9375 -1.933594,2.0507813 0,1.18359375 0.949219,2.07421875 2.050781,2.07421875 1.089844,0 1.535156,-0.9609375 1.535156,-1.16015625 0,-0.070312 -0.04687,-0.1171875 -0.128906,-0.1171875 -0.08203,0 -0.117187,0.058594 -0.128906,0.09375 -0.304688,0.9140625 -1.101563,0.9375 -1.242188,0.9375 -0.421875,0 -0.796875,-0.24609375 -1.007812,-0.55078125 C 16.841117,-1.1494688 16.829398,-1.6885313 16.829398,-2.0635313 Z m -2.554688,-0.2109375 c 0.08203,-1.3945312 0.890625,-1.5351562 1.148438,-1.5351562 0.492187,0 1.03125,0.375 1.042968,1.5351562 z m 0,0"
       style="fill:#000000;fill-opacity:1;fill-rule:nonzero;stroke:none"
       aria-label="Bake"
       transform="matrix(1.3333333,0,0,1.3333333,35.205333,78.392)" />
    <path
       id="path3"
       d="M 125.04198,0 85.43892,13.14885 45.83588,0 85.43892,-13.14885 Z"
       style="fill:none;stroke:#000000;stroke-width:0.3985;stroke-linecap:butt;stroke-linejoin:miter;stroke-miterlimit:10;stroke-dasharray:none;stroke-opacity:1"
       transform="matrix(1.3333333,0,0,-1.3333333,48.482667,74.225333)" />
    <g
       id="g3"
       aria-label="类型"
       transform="matrix(1.3333333,0,0,1.3333333,150.39867,78.425333)">
      <path
         id="path4"
         d="m 1.9334219,-6.9254453 0.070312,-0.1054688 c 0.515625,0.2109375 0.8789062,0.3955078 1.0898437,0.5507813 0.2109375,0.149414 0.3076172,0.3017578 0.2929688,0.4570312 -0.00879,0.1494141 -0.046875,0.2783203 -0.1171875,0.3867188 -0.070312,0.102539 -0.1289063,0.1523437 -0.1757813,0.1523437 -0.070312,0 -0.1523437,-0.1171875 -0.2460937,-0.3515625 -0.1640625,-0.328125 -0.46875,-0.6914062 -0.914062,-1.0898437 z m 2.390625,1.6523437 v -1.5117187 c 0,-0.1640625 -0.011719,-0.3515625 -0.035156,-0.5625 l 0.9140625,0.3515625 -0.3867187,0.28125 v 1.4414062 h 0.6679687 c 0.5390625,-0.7265625 0.9375,-1.3476562 1.1953125,-1.8632812 l 0.703125,0.5976562 -0.3867187,0.1054688 c -0.2578125,0.1875 -0.6914063,0.5742187 -1.3007813,1.1601562 h 1.7226563 l 0.4921875,-0.4570312 0.6328125,0.6679687 H 4.8162344 v 0.2109375 c 1.4765625,0.3984375 2.3554687,0.6796875 2.6367187,0.84375 0.28125,0.1640625 0.4335938,0.3046875 0.4570313,0.421875 0.023437,0.1171875 0.035156,0.1992188 0.035156,0.2460938 0,0.1171875 -0.020508,0.2109375 -0.058594,0.28125 -0.032227,0.070312 -0.058594,0.1054687 -0.082031,0.1054687 -0.1171875,0 -0.3046875,-0.140625 -0.5625,-0.421875 -0.3515625,-0.3515625 -1.1601562,-0.796875 -2.4257812,-1.3359375 0,0.7265625 0.011719,1.171875 0.035156,1.3359375 l -0.5625,0.2109375 c 0.023437,-0.3046875 0.035156,-0.9257812 0.035156,-1.8632812 -0.421875,0.5390625 -0.9111328,1.0078125 -1.4648438,1.40625 -0.5478515,0.3984375 -1.3125,0.7382812 -2.29687498,1.0195312 l -0.0351563,-0.1054687 c 0.86718748,-0.375 1.53808598,-0.75 2.01562498,-1.125 0.4833984,-0.375 0.890625,-0.7851563 1.21875,-1.2304688 H 1.7576406 c -0.3046875,0 -0.5859375,0.035156 -0.84374998,0.1054688 L 0.59748437,-5.2731016 Z m 0.2460937,2.7773438 c -0.046875,0.140625 -0.09375,0.2695312 -0.140625,0.3867187 h 3.0234375 l 0.4921875,-0.4921875 0.6328125,0.703125 h -3.65625 c 0.3984375,0.5625 0.890625,1.01953129 1.4765625,1.37109379 0.5859375,0.3515625 1.3242188,0.57421875 2.2148438,0.66796875 v 0.140625 c -0.4453125,0.0234375 -0.7265625,0.1875 -0.84375,0.4921875 C 6.9959219,0.46908594 6.3426016,0.056 5.8123281,-0.45669531 5.2879141,-0.97232031 4.9334219,-1.4527891 4.7459219,-1.8981016 H 4.3943594 c -0.28125,0.91406254 -0.7265625,1.56445316 -1.3359375,1.94531254 -0.609375,0.38964843 -1.4882813,0.6796875 -2.63671878,0.8671875 L 0.38654687,0.80892969 C 1.2302969,0.59799219 1.9568594,0.29916406 2.5662344,-0.08169531 3.1756094,-0.47134375 3.6092031,-1.0777891 3.8670156,-1.8981016 H 1.5115469 c -0.3046875,0 -0.58593753,0.035156 -0.84375003,0.1054688 L 0.35139062,-2.1090391 H 3.9021719 c 0.046875,-0.328125 0.082031,-0.6679687 0.1054687,-1.0195312 l 0.8789063,0.421875 z m 0,0"
         style="fill:#000000;fill-opacity:1;fill-rule:nonzero;stroke:none" />
      <path
         id="path5"
         d="m 12.620922,-2.3551328 c 0.02344,-0.5390625 0.03516,-0.9726563 0.03516,-1.3007813 v -1.125 h -1.019531 c -0.04687,1.2421875 -0.691406,2.203125 -1.9335939,2.8828125 L 9.6326451,-2.0035703 C 10.593583,-2.7301328 11.109208,-3.6559141 11.17952,-4.7809141 h -0.351563 c -0.304687,0 -0.585937,0.035156 -0.8437494,0.1054688 L 9.6677969,-4.9918516 h 1.5117191 v -1.4765625 h -0.457032 l -0.421875,0.070312 -0.28125,-0.28125 h 3.199219 l 0.421875,-0.421875 0.632813,0.6328125 h -1.160157 v 1.4765625 h 0.386719 l 0.457031,-0.4570312 0.667969,0.6679687 h -1.511719 v 1.125 c 0,0.46875 0.01172,0.8085938 0.03516,1.0195313 z m -0.984375,-4.1132813 v 1.4765625 h 1.019531 v -1.4765625 z m 3.234375,2.9179688 c 0.02344,-0.5390625 0.03516,-1.0664063 0.03516,-1.5820313 0,-0.515625 -0.01172,-0.9609375 -0.03516,-1.3359375 l 0.738281,0.28125 -0.246094,0.2460938 v 2.2148437 z m 1.441406,-3.796875 0.738281,0.3515625 -0.246093,0.2460937 v 3.6210938 c 0.04687,0.4453125 -0.199219,0.7734375 -0.738282,0.984375 -0.02344,-0.28125 -0.386718,-0.5039063 -1.089843,-0.6679688 v -0.1757812 c 0.609375,0.070312 0.987304,0.102539 1.136718,0.09375 0.155274,-0.014649 0.234375,-0.1640625 0.234375,-0.4453125 v -2.9179688 c 0,-0.3046875 -0.01172,-0.6679687 -0.03516,-1.0898437 z m -3.058594,5.90625 c 0,-0.3515625 -0.01172,-0.7382813 -0.03516,-1.1601563 l 0.84375,0.3515625 -0.316406,0.2460938 v 0.5625 h 1.652344 l 0.492187,-0.4921875 0.703125,0.703125 h -2.847656 v 1.44140624 h 2.320312 l 0.5625,-0.5625 0.773438,0.7734375 h -6.609375 c -0.304688,0 -0.585938,0.0351563 -0.8437501,0.10546875 L 9.6326406,0.21127344 H 13.253734 V -1.2301328 h -1.441406 c -0.304687,0 -0.585937,0.035156 -0.84375,0.1054687 l -0.316406,-0.3164062 z m 0,0"
         style="fill:#000000;fill-opacity:1;fill-rule:nonzero;stroke:none" />
    </g>
    <path
       id="path6"
       d="m 193.30147,45.18251 h -56.38524 c -1.65071,0 -2.98883,-1.33813 -2.98883,-2.98883 v -12.4476 c 0,-1.6507 1.33812,-2.98883 2.98883,-2.98883 h 56.38524 c 1.65069,0 2.98883,1.33813 2.98883,2.98883 v 12.4476 c 0,1.6507 -1.33814,2.98883 -2.98883,2.98883 z"
       style="fill:none;stroke:#000000;stroke-width:0.3985;stroke-linecap:butt;stroke-linejoin:miter;stroke-miterlimit:10;stroke-dasharray:none;stroke-opacity:1"
       transform="matrix(1.3333333,0,0,-1.3333333,48.482667,74.225333)" />
    <g
       id="g6"
       aria-label="参数化"
       transform="matrix(1.3333333,0,0,1.3333333,250.624,30.466667)">
      <path
         id="path7"
         d="m 6.610125,-5.4857422 c -1.125,0.070312 -1.8632812,0.1171875 -2.2148437,0.140625 -0.1875,0.3046875 -0.375,0.609375 -0.5625,0.9140625 H 7.453875 l 0.4570313,-0.4570312 0.6328125,0.6679687 H 5.2741875 c 0.5390625,0.5625 1.1015625,0.9609375 1.6875,1.1953125 0.5859375,0.234375 1.125,0.3867188 1.6171875,0.4570313 v 0.1054687 C 8.25075,-2.3919922 8.016375,-2.2513672 7.87575,-2.0404297 7.3366875,-2.2513672 6.8122734,-2.5355469 6.3054375,-2.8958984 5.8044609,-3.2621094 5.4030938,-3.7044922 5.0984063,-4.2201172 H 3.7624688 c -0.3984375,0.515625 -0.8320313,0.9609375 -1.3007813,1.3359375 -0.46875,0.375 -1.1367187,0.7617188 -2.00390625,1.1601563 L 0.422625,-1.8646484 c 0.84375,-0.4921875 1.4648438,-0.928711 1.8632813,-1.3125 0.3984375,-0.3896485 0.703125,-0.7382813 0.9140625,-1.0429688 H 1.12575 l -0.31640625,0.070312 -0.28125,-0.28125 H 3.3054375 c 0.09375,-0.140625 0.2460938,-0.4335937 0.4570313,-0.8789062 -0.9609375,0.046875 -1.59375,0.140625 -1.8984375,0.28125 l -0.2460938,-0.632812 c 0.375,-0.023437 0.8320313,-0.2373047 1.3710938,-0.6445313 0.5390625,-0.4130859 0.9140625,-0.7617187 1.125,-1.0429687 l 0.5273437,0.5625 -0.421875,0.1054687 c -1.0078125,0.5859375 -1.6757812,0.9492188 -2.0039062,1.0898438 l 4.2890625,-0.035156 C 6.1999688,-5.9076172 5.8366875,-6.1654297 5.4148125,-6.3998047 l 0.070312,-0.140625 c 0.75,0.2578125 1.265625,0.4804688 1.546875,0.6679688 0.28125,0.1875 0.421875,0.375 0.421875,0.5625 0,0.046875 -0.023437,0.1376953 -0.070312,0.2695312 -0.046875,0.1259766 -0.1054687,0.1875 -0.1757812,0.1875 -0.046875,0 -0.09375,-0.035156 -0.140625,-0.1054687 C 6.9499688,-5.1224609 6.797625,-5.2982422 6.610125,-5.4857422 Z m -2.0390625,1.6875 0.5625,0.5625 -0.28125,0.070312 c -1.2421875,0.890625 -2.3554687,1.4648438 -3.3398437,1.7226563 l -0.035156,-0.140625 c 0.75,-0.3046875 1.3857422,-0.65625 1.9101563,-1.0546875 0.5302734,-0.3984375 0.9257812,-0.7851563 1.1835934,-1.1601558 z m 0.984375,1.0546875 0.5625,0.5625 -0.3867187,0.070312 c -1.546875,1.0078125 -2.9414063,1.60546876 -4.1835938,1.79296876 l -0.035156,-0.140625 c 1.1015625,-0.328125 1.9453125,-0.67968746 2.53125,-1.05468746 0.5859375,-0.375 1.0898437,-0.7851563 1.5117185,-1.2304683 z m 1.1953125,0.984375 0.5273438,0.5976563 -0.3515625,0.070312 c -1.359375,0.79687496 -2.4580079,1.29199215 -3.2929688,1.48828121 -0.8291016,0.20214844 -1.734375,0.328125 -2.71875,0.375 v -0.140625 C 2.2273125,0.49082031 3.3903984,0.19199219 4.407,-0.25917969 5.4294609,-0.71914063 6.2116875,-1.2201172 6.75075,-1.7591797 Z m 0,0"
         style="fill:#000000;fill-opacity:1;fill-rule:nonzero;stroke:none" />
      <path
         id="path8"
         d="m 11.637469,-2.1458984 c -0.1875,0.3046875 -0.363281,0.5976562 -0.527344,0.8789062 0.304688,0.070312 0.667969,0.1523438 1.089844,0.2460938 0.210937,-0.234375 0.421875,-0.609375 0.632812,-1.125 z m -1.441406,-4.7460938 c 0.445312,0.28125 0.714843,0.4921875 0.808593,0.6328125 0.09375,0.140625 0.140625,0.2460938 0.140625,0.3164063 0,0.1171875 -0.04395,0.234375 -0.128906,0.3515625 -0.0791,0.1171875 -0.140625,0.1757812 -0.1875,0.1757812 -0.07031,0 -0.140625,-0.1171875 -0.210937,-0.3515625 -0.09375,-0.328125 -0.269532,-0.6796875 -0.527344,-1.0546875 z m 3.023437,-0.1054687 0.632813,0.421875 c -0.1875,0.046875 -0.351563,0.1640625 -0.492188,0.3515625 -0.164062,0.1875 -0.433594,0.46875 -0.808594,0.84375 l -0.105468,-0.070312 c 0.445312,-0.703125 0.703125,-1.21875 0.773437,-1.5468755 z m -1.582031,-0.3867188 0.773437,0.3515625 -0.28125,0.2460938 v 1.6171875 h 0.878907 l 0.386718,-0.3867188 0.597657,0.5976563 h -1.863282 v 0.3164062 c 0.539063,0.1171875 0.870117,0.2314453 0.996094,0.3398438 0.131836,0.102539 0.199219,0.234375 0.199219,0.3984375 0,0.070312 -0.01172,0.1611328 -0.03516,0.2695312 -0.02344,0.1025391 -0.05859,0.1523438 -0.105469,0.1523438 -0.04687,0 -0.128906,-0.082031 -0.246094,-0.2460938 -0.1875,-0.2578125 -0.457031,-0.5039062 -0.808594,-0.7382812 v 1.0898437 l -0.421875,0.28125 0.492188,0.2109375 c -0.117188,0.046875 -0.269531,0.2226563 -0.457031,0.5273438 h 1.089843 l 0.246094,-0.3164063 0.527344,0.4570313 -0.316406,0.1757812 c -0.234375,0.5390625 -0.445313,0.9140625 -0.632813,1.12500001 0.375,0.09375 0.624023,0.19628906 0.75,0.3046875 0.131836,0.10253906 0.199219,0.234375 0.199219,0.3984375 0,0.1640625 -0.03516,0.24609375 -0.105469,0.24609375 -0.07031,0 -0.152344,-0.046875 -0.246094,-0.140625 -0.257812,-0.1875 -0.550781,-0.3515625 -0.878906,-0.4921875 -0.820312,0.65332031 -1.792969,1.08984375 -2.9179687,1.30078125 L 9.422625,0.59628906 c 1.078125,-0.3515625 1.921875,-0.80859375 2.53125,-1.37109375 -0.46875,-0.1640625 -0.925781,-0.28125001 -1.371094,-0.35156251 0.09375,-0.140625 0.28125,-0.4804687 0.5625,-1.0195312 H 10.68825 c -0.304687,0 -0.585937,0.035156 -0.84375,0.1054687 L 9.5280938,-2.3568359 h 1.6875002 c 0.09375,-0.234375 0.1875,-0.515625 0.28125,-0.84375 l 0.175781,0.070312 v -1.4414063 c -0.632812,0.7265625 -1.359375,1.2890625 -2.1796875,1.6875 L 9.422625,-2.9896484 c 0.867188,-0.609375 1.523438,-1.265625 1.96875,-1.96875 h -0.632812 c -0.304688,0 -0.585938,0.035156 -0.8437505,0.1054687 L 9.5984063,-5.1693359 h 2.0742187 c 0,-0.84375 -0.01172,-1.5820313 -0.03516,-2.2148438 z m 2.882812,2.4257813 c 0.117188,1.359375 0.398438,2.4960937 0.84375,3.4101562 0.375,-0.796875 0.609375,-1.9335937 0.703125,-3.4101562 z m 0.175782,-2.4257813 0.808593,0.4570313 c -0.1875,0.070312 -0.328125,0.2109375 -0.421875,0.421875 -0.09375,0.2109375 -0.269531,0.65625 -0.527343,1.3359375 h 2.003906 l 0.421875,-0.421875 0.632812,0.6328125 H 16.5945 c -0.140625,1.734375 -0.445312,3.0234375 -0.914062,3.8671875 0.539062,0.65624996 1.171875,1.0693359 1.898437,1.23046871 v 0.140625 c -0.445312,0.0703125 -0.679687,0.2109375 -0.703125,0.421875 -0.609375,-0.421875 -1.113281,-0.90234375 -1.511719,-1.44140625 -0.773437,0.74707031 -1.699218,1.30078125 -2.777343,1.65234375 l -0.07031,-0.10546875 c 1.078125,-0.4921875 1.933594,-1.13671875 2.566406,-1.93359376 -0.445312,-1.1015625 -0.679687,-2.3085937 -0.703125,-3.6210937 -0.234375,0.609375 -0.574218,1.1835937 -1.019531,1.7226562 l -0.105469,-0.070312 c 0.5625,-0.9375 1.042969,-2.3671875 1.441407,-4.2890625 z m 0,0"
         style="fill:#000000;fill-opacity:1;fill-rule:nonzero;stroke:none" />
      <path
         id="path9"
         d="m 19.934344,0.84238281 c 0.02344,-0.75 0.03516,-1.46484375 0.03516,-2.14453121 v -3.09375 c -0.515625,0.7734375 -1.007812,1.40625 -1.476562,1.8984375 l -0.105469,-0.1054688 c 0.515625,-0.7265625 0.996094,-1.5703125 1.441406,-2.53125 0.445313,-0.9609375 0.726563,-1.6875 0.84375,-2.1796875 l 0.773438,0.4570313 -0.351563,0.2109375 c -0.304687,0.6796875 -0.585937,1.265625 -0.84375,1.7578125 l 0.492188,0.28125 -0.28125,0.28125 v 3.83203121 c 0,0.2578125 0.01172,0.609375 0.03516,1.0546875 z m 2.917969,-3.83203121 v -2.53125 c 0,-0.515625 -0.01172,-1.1132813 -0.03516,-1.7929688 l 0.808594,0.3867188 -0.28125,0.28125 v 3.2695312 c 0.328125,-0.3046875 0.682617,-0.6914062 1.066406,-1.1601562 0.389649,-0.46875 0.667969,-0.84375 0.832032,-1.125 l 0.632812,0.5976562 -0.386719,0.1054688 C 24.809344,-4.1849609 24.0945,-3.4701172 23.3445,-2.8138672 v 2.21484376 c 0,0.3984375 0.199219,0.59765625 0.597656,0.59765625 h 1.511719 c 0.1875,0 0.304688,-0.15234375 0.351563,-0.45703125 0.04687,-0.3046875 0.07031,-0.77343746 0.07031,-1.40624996 h 0.175781 c 0.04687,0.6328125 0.105469,1.05468746 0.175782,1.26562496 0.07031,0.2109375 0.199218,0.3515625 0.386718,0.421875 -0.210937,0.41894531 -0.550781,0.6328125 -1.019531,0.6328125 h -1.863281 c -0.585938,0 -0.878906,-0.27246094 -0.878906,-0.80859375 V -2.4974609 c -0.609375,0.46875 -1.3125,0.8671875 -2.109375,1.1953125 l -0.03516,-0.140625 c 0.820313,-0.46875 1.535157,-0.984375 2.144532,-1.546875 z m 0,0"
         style="fill:#000000;fill-opacity:1;fill-rule:nonzero;stroke:none" />
    </g>
    <path
       id="path10"
       d="m 280.8589,-26.75725 h -87.24902 c -1.65071,0 -2.98883,-1.33813 -2.98883,-2.98883 V -52.808 c 0,-1.65071 1.33812,-2.98883 2.98883,-2.98883 h 87.24902 c 1.65071,0 2.98883,1.33812 2.98883,2.98883 v 23.06192 c 0,1.6507 -1.33812,2.98883 -2.98883,2.98883 z"
       style="fill:none;stroke:#000000;stroke-width:0.3985;stroke-linecap:butt;stroke-linejoin:miter;stroke-miterlimit:10;stroke-dasharray:none;stroke-opacity:1"
       transform="matrix(1.3333333,0,0,-1.3333333,48.482667,74.225333)" />
    <path
       id="path11"
       d="m 2.0615,-3.1867422 v -2.3085937 c 0,-0.234375 0.011719,-0.3164063 0.1875,-0.3515625 0.082031,-0.023437 0.3632813,-0.023437 0.5625,-0.023437 0.7734375,0 1.9101563,0 1.9101563,1.3476562 0,0.7734375 -0.3984375,1.3359375 -1.6171875,1.3359375 z m 2.0273438,0.140625 c 0.8554687,-0.2460937 1.5585937,-0.7734375 1.5585937,-1.4765625 0,-0.890625 -1.0898437,-1.6289062 -2.4140625,-1.6289062 H 0.36228125 v 0.28125 H 0.5615 c 0.703125,0 0.7148438,0.1054687 0.7148438,0.4335937 v 4.72265626 c 0,0.33984375 -0.011719,0.43359375 -0.7148438,0.43359375 H 0.36228125 V 7.578125e-4 C 0.78415625,-0.02267969 1.2294688,-0.02267969 1.6630625,-0.02267969 c 0.4335938,0 0.8789063,0 1.3125,0.0234375025 V -0.28049219 H 2.7763438 c -0.703125,0 -0.7148438,-0.09375 -0.7148438,-0.43359375 V -2.9640859 h 1.078125 c 0.6445313,0 0.9375,0.3515625 0.9726563,0.3867187 0.2695312,0.328125 0.2695312,0.46875 0.2695312,1.1015625 0,0.60937501 0,0.99609376 0.4335938,1.33593751 0.421875,0.33984375 0.9609375,0.33984375 1.0664062,0.33984375 0.75,0 0.890625,-0.78515625 0.890625,-0.99609375 0,-0.0585938 0,-0.1640625 -0.1289062,-0.1640625 -0.1171875,0 -0.1171875,0.0820313 -0.1289063,0.15234375 -0.046875,0.5625 -0.328125,0.78515625 -0.5976562,0.78515625 -0.2929688,0 -0.3867188,-0.1875 -0.46875,-0.33984375 C 5.3661875,-0.56174219 5.295875,-1.1711172 5.2372813,-1.5695547 5.1669688,-2.1320547 5.0849375,-2.7297109 4.0888438,-3.0461172 Z m 6.3164062,0.984375 c 0.199219,0 0.246094,0 0.246094,-0.1875 0,-0.9257812 -0.503906,-1.78125 -1.652344,-1.78125 -1.0898437,0 -1.9335937,0.9375 -1.9335937,2.0507813 0,1.18359371 0.9492187,2.07421871 2.0507812,2.07421871 1.0898435,0 1.5351565,-0.9609375 1.5351565,-1.16015621 0,-0.070312 -0.04687,-0.1171875 -0.128906,-0.1171875 -0.08203,0 -0.117188,0.058594 -0.128907,0.09375 -0.304687,0.91406246 -1.1015622,0.93749996 -1.2421872,0.93749996 -0.421875,0 -0.796875,-0.24609375 -1.0078125,-0.55078125 C 7.8505625,-1.1476797 7.8388438,-1.6867422 7.8388438,-2.0617422 Z M 7.8505625,-2.2726797 c 0.082031,-1.3945312 0.890625,-1.5351562 1.1484375,-1.5351562 0.4921875,0 1.03125,0.375 1.042969,1.5351562 z m 4.7490235,-0.058594 c 0,-0.9492188 0.667969,-1.4179688 1.242187,-1.4179688 0.527344,0 0.644532,0.4335938 0.644532,0.9726563 v 2.08593746 c 0,0.41015625 -0.09375,0.41015625 -0.691407,0.41015625 V 7.578125e-4 c 0.421875,-0.0234375025 0.597657,-0.0234375025 1.03125,-0.0234375025 0.421875,0 0.539063,0 1.019532,0.0234375025 V -0.28049219 c -0.457032,0 -0.679688,0 -0.691407,-0.28125 V -2.2843984 c 0,-0.75 0,-1.0078125 -0.257812,-1.3242188 -0.199219,-0.2460937 -0.539063,-0.3632812 -0.996094,-0.3632812 -0.832031,0 -1.21875,0.6210937 -1.347656,0.8671875 h -0.01172 v -0.8671875 l -1.300781,0.09375 v 0.28125 c 0.609375,0 0.691406,0.058594 0.691406,0.5039062 v 2.40234376 c 0,0.41015625 -0.09375,0.41015625 -0.691406,0.41015625 V 7.578125e-4 C 11.662086,-0.02267969 11.837867,-0.02267969 12.259742,-0.02267969 c 0.433594,0 0.550781,0 1.03125,0.0234375025 V -0.28049219 c -0.597656,0 -0.691406,0 -0.691406,-0.41015625 z m 6.966797,1.2539062 c 0,0.16406251 0,0.18750001 -0.140625,0.37500001 -0.28125,0.41015625 -0.691406,0.57421875 -1.054688,0.57421875 -0.386718,0 -0.738281,-0.2109375 -0.972656,-0.5859375 -0.234375,-0.38671876 -0.257812,-0.92578126 -0.257812,-1.20703126 0,-0.421875 0.05859,-0.9023437 0.292968,-1.265625 0.199219,-0.28125 0.5625,-0.5625 1.042969,-0.5625 0.375,0 0.738281,0.1875 0.984375,0.5273438 0.105469,0.140625 0.105469,0.1523437 0.105469,0.328125 z m 0.02344,-2.3671875 c -0.04687,-0.058594 -0.445312,-0.5273437 -1.148437,-0.5273437 -1.113281,0 -2.074219,0.8789062 -2.074219,2.0390625 0,1.12499996 0.902344,2.02734371 1.96875,2.02734371 0.65625,0 1.066406,-0.38671875 1.230469,-0.57421875 V 0.09450781 L 20.925758,7.578125e-4 V -0.28049219 c -0.621094,0 -0.691406,-0.0585938 -0.691406,-0.50390625 V -6.2453359 l -1.335938,0.09375 v 0.28125 c 0.609375,0 0.691406,0.070312 0.691406,0.5039062 z m 5.208985,1.3828125 c 0.199218,0 0.246093,0 0.246093,-0.1875 0,-0.9257812 -0.503906,-1.78125 -1.652343,-1.78125 -1.089844,0 -1.933594,0.9375 -1.933594,2.0507813 0,1.18359371 0.949219,2.07421871 2.050781,2.07421871 1.089844,0 1.535156,-0.9609375 1.535156,-1.16015621 0,-0.070312 -0.04687,-0.1171875 -0.128906,-0.1171875 -0.08203,0 -0.117187,0.058594 -0.128906,0.09375 -0.304688,0.91406246 -1.101563,0.93749996 -1.242188,0.93749996 -0.421875,0 -0.796875,-0.24609375 -1.007812,-0.55078125 C 22.244117,-1.1476797 22.232398,-1.6867422 22.232398,-2.0617422 Z M 22.24412,-2.27268 c 0.08203,-1.3945312 0.890625,-1.5351562 1.148438,-1.5351562 0.492187,0 1.03125,0.375 1.042968,1.5351562 z m 4.678711,0.2109375 c 0,-0.3632812 0.09375,-1.6875 1.125,-1.6875 v 0.011719 c -0.02344,0 -0.164062,0.1054687 -0.164062,0.328125 0,0.2460937 0.1875,0.3984375 0.398437,0.3984375 0.1875,0 0.386719,-0.140625 0.386719,-0.4101563 0,-0.28125 -0.269531,-0.5507812 -0.667969,-0.5507812 -0.539062,0 -0.914062,0.375 -1.125,0.9257812 h -0.01172 v -0.9257812 l -1.277343,0.09375 v 0.28125 c 0.609375,0 0.691406,0.058594 0.691406,0.5039062 v 2.40234376 c 0,0.41015625 -0.09375,0.41015625 -0.691406,0.41015625 V 7.578125e-4 C 26.067359,-0.02267969 26.184547,-0.02267969 26.641578,-0.02267969 c 0.363281,0 0.574219,0 1.136719,0.0234375025 V -0.28049219 h -0.175781 c -0.65625,0 -0.679688,-0.09375 -0.679688,-0.43359375 z M -26.710961,8.6140391 c -0.04687,-0.1054688 -0.04687,-0.1640625 -0.04687,-0.1757813 0,-0.2695312 0.457031,-0.2695312 0.726563,-0.2695312 v -0.28125 c -0.410157,0.035156 -0.867188,0.035156 -1.277344,0.035156 -0.386719,0 -0.515625,-0.011719 -1.160156,-0.035156 v 0.28125 c 0.65625,0 0.761718,0.035156 0.890625,0.3515625 l 2.167968,5.5195309 c 0.05859,0.140625 0.08203,0.199219 0.234375,0.199219 0.140625,0 0.164063,-0.05859 0.210938,-0.175781 l 2.085937,-5.2851564 c 0.1875,-0.4804688 0.5625,-0.609375 0.984375,-0.609375 v -0.28125 c -0.316406,0.035156 -0.574218,0.035156 -0.878906,0.035156 -0.386719,0 -0.574219,-0.011719 -1.007812,-0.035156 v 0.28125 c 0.433593,0.011719 0.632812,0.2226562 0.632812,0.4570312 0,0.070312 -0.01172,0.082031 -0.04687,0.1757813 l -1.710937,4.3710939 z m 8.586914,3.5039059 c 0,-1.171875 -0.9375,-2.109375 -2.050781,-2.109375 -1.136719,0 -2.050781,0.960938 -2.050781,2.109375 0,1.125 0.9375,2.015625 2.050781,2.015625 1.136719,0 2.050781,-0.902343 2.050781,-2.015625 z m -2.050781,1.769532 c -0.445313,0 -0.820313,-0.222657 -1.03125,-0.574219 -0.234375,-0.375 -0.246094,-0.855469 -0.246094,-1.265625 0,-0.339844 0,-0.855469 0.234375,-1.21875 0.269531,-0.457031 0.714844,-0.597656 1.042969,-0.597656 0.503906,0 0.878906,0.292968 1.054687,0.597656 0.210938,0.375 0.222657,0.832031 0.222657,1.21875 0,0.328125 0,0.84375 -0.234375,1.242187 -0.246094,0.421875 -0.65625,0.597657 -1.042969,0.597657 z m 3.969726,-6.0937504 -1.324218,0.09375 v 0.28125 c 0.609375,0 0.691406,0.070312 0.691406,0.5039062 v 4.6757812 c 0,0.410156 -0.105469,0.410156 -0.691406,0.410156 v 0.28125 c 0.421875,-0.02344 0.585937,-0.02344 1.007812,-0.02344 0.421875,0 0.574219,0 1.007813,0.02344 v -0.28125 c -0.585938,0 -0.691407,0 -0.691407,-0.410156 z m 4.479493,4.7460934 c 0,0.796875 -0.445313,1.371094 -1.101563,1.371094 -0.738281,0 -0.785156,-0.386719 -0.785156,-0.867187 v -2.976563 l -1.359375,0.09375 v 0.28125 c 0.691406,0 0.691406,0.02344 0.691406,0.820313 v 1.359375 c 0,0.585937 0,0.960937 0.410156,1.277343 0.269532,0.175782 0.632813,0.234375 0.996094,0.234375 0.46875,0 0.902344,-0.199218 1.171875,-0.738281 v 0.738281 l 1.335938,-0.09375 v -0.28125 c -0.609375,0 -0.691407,-0.05859 -0.691407,-0.503906 v -3.1875 l -1.359375,0.09375 v 0.28125 c 0.609375,0 0.691407,0.05859 0.691407,0.503906 z m 3.2519528,-0.832031 c 0,-0.972656 0.703125,-1.417969 1.2421875,-1.417969 0.4921875,0 0.65625,0.351563 0.65625,0.972657 v 2.085937 c 0,0.410156 -0.1054688,0.410156 -0.6914063,0.410156 v 0.28125 c 0.421875,-0.02344 0.5859375,-0.02344 1.0195313,-0.02344 0.4335937,0 0.5507812,0 1.03125,0.02344 v -0.28125 c -0.5976563,0 -0.6914063,0 -0.6914063,-0.410156 v -1.640625 c 0,-0.972656 0.703125,-1.417969 1.2421875,-1.417969 0.4921875,0 0.65625,0.351563 0.65625,0.972657 v 2.085937 c 0,0.410156 -0.1054687,0.410156 -0.6914062,0.410156 v 0.28125 c 0.421875,-0.02344 0.5859375,-0.02344 1.0195312,-0.02344 0.4335938,0 0.5507813,0 1.03125,0.02344 v -0.28125 c -0.4570312,0 -0.6914062,0 -0.6914062,-0.28125 v -1.722656 c 0,-0.785156 0,-1.03125 -0.3046875,-1.371094 -0.1875,-0.210937 -0.5507813,-0.316406 -0.9609375,-0.316406 -0.6445313,0 -1.0898438,0.375 -1.3359375,0.855469 -0.1171875,-0.539063 -0.46875,-0.855469 -1.2304688,-0.855469 -0.7148437,0 -1.1601562,0.457031 -1.3476562,0.878906 H -8.53225 v -0.878906 l -1.3007812,0.09375 v 0.28125 c 0.609375,0 0.6914062,0.05859 0.6914062,0.503906 v 2.402344 c 0,0.410156 -0.09375,0.410156 -0.6914062,0.410156 v 0.28125 c 0.421875,-0.02344 0.5976562,-0.02344 1.0195312,-0.02344 0.4335938,0 0.5507813,0 1.03125,0.02344 v -0.28125 c -0.5976562,0 -0.6914062,0 -0.6914062,-0.410156 z m 9.6298828,0.269531 c 0.1992187,0 0.2460937,0 0.2460937,-0.1875 0,-0.925781 -0.50390624,-1.78125 -1.65234374,-1.78125 -1.08984376,0 -1.93359376,0.9375 -1.93359376,2.050782 0,1.183593 0.9492188,2.074218 2.05078126,2.074218 1.08984375,0 1.53515624,-0.960937 1.53515624,-1.160156 0,-0.07031 -0.046875,-0.117187 -0.1289062,-0.117187 -0.082031,0 -0.1171875,0.05859 -0.1289063,0.09375 -0.30468749,0.914062 -1.10156249,0.9375 -1.24218749,0.9375 -0.421875,0 -0.796875,-0.246094 -1.00781251,-0.550782 -0.2929687,-0.445312 -0.3046875,-0.984375 -0.3046875,-1.359375 z m -2.5546875,-0.210937 c 0.082031,-1.394531 0.89062496,-1.535156 1.14843746,-1.535156 0.4921875,0 1.03125,0.375 1.04296875,1.535156 z m 6,-1.324219 v -0.28125 h -1.3125 V 8.5085703 H 3.0429453 c -0.011719,0.75 -0.328125,1.6757817 -1.1953125,1.7109377 v 0.222656 h 0.7734375 v 2.484375 c 0,1.007813 0.7382813,1.207031 1.2070313,1.207031 0.609375,0 0.9257812,-0.574218 0.9257812,-1.207031 V 12.410914 H 4.4960703 v 0.480469 c 0,0.667969 -0.28125,0.996094 -0.5976562,0.996094 -0.609375,0 -0.609375,-0.796875 -0.609375,-0.949219 v -2.496094 z m 2.2734375,1.535156 c 0,-0.363281 0.09375,-1.6875 1.125,-1.6875 v 0.01172 c -0.023437,0 -0.1640625,0.105469 -0.1640625,0.328125 0,0.246094 0.1875,0.398438 0.3984375,0.398438 0.1875,0 0.3867187,-0.140625 0.3867187,-0.410157 0,-0.28125 -0.2695312,-0.550781 -0.6679687,-0.550781 -0.5390625,0 -0.9140625,0.375 -1.125,0.925781 h -0.011719 v -0.925781 l -1.2773437,0.09375 v 0.28125 c 0.609375,0 0.6914062,0.05859 0.6914062,0.503906 v 2.402344 c 0,0.410156 -0.09375,0.410156 -0.6914062,0.410156 v 0.28125 c 0.4804687,-0.02344 0.5976562,-0.02344 1.0546875,-0.02344 0.3632812,0 0.5742187,0 1.1367187,0.02344 V 13.75857 h -0.175781 c -0.65625,0 -0.6796875,-0.09375 -0.6796875,-0.433593 z m 3.6650394,-1.910156 -1.2890629,0.09375 v 0.28125 c 0.5742188,0 0.65625,0.04687 0.65625,0.492188 v 2.414062 c 0,0.410156 -0.1054687,0.410156 -0.6914062,0.410156 v 0.28125 c 0.3984375,-0.02344 0.5859375,-0.02344 0.9843751,-0.02344 0.140625,0 0.527344,0 0.960937,0.02344 v -0.28125 c -0.585937,0 -0.621093,-0.04687 -0.621093,-0.398437 z m 0.03516,-1.5703124 c 0,-0.2695313 -0.222656,-0.4921875 -0.492188,-0.4921875 -0.2812496,0 -0.4804684,0.234375 -0.4804684,0.4921875 0,0.2578125 0.1992188,0.4804687 0.4804684,0.4804687 0.269532,0 0.492188,-0.2109375 0.492188,-0.4804687 z m 4.163086,2.0039064 c -0.199219,0.03516 -0.375,0.164062 -0.375,0.421875 0,0.234375 0.175781,0.421875 0.410156,0.421875 0.234375,0 0.421875,-0.152344 0.421875,-0.433594 0,-0.5625 -0.621094,-0.902344 -1.417969,-0.902344 -1.148437,0 -2.015625,0.960938 -2.015625,2.085938 0,1.160156 0.9375,2.039062 2.003907,2.039062 1.242187,0 1.535156,-1.078125 1.535156,-1.160156 0,-0.117187 -0.105469,-0.117187 -0.128906,-0.117187 -0.09375,0 -0.09375,0.02344 -0.152344,0.175781 -0.210938,0.621094 -0.714844,0.855469 -1.171875,0.855469 -0.574219,0 -1.3125,-0.46875 -1.3125,-1.804688 0,-1.394531 0.726562,-1.828125 1.265625,-1.828125 0.117187,0 0.597656,0.02344 0.9375,0.246094 z m 9.295898,1.21875 h -0.246093 c -0.105469,0.902344 -0.222657,2.039062 -1.839844,2.039062 h -0.785156 c -0.421875,0 -0.433594,-0.05859 -0.433594,-0.363281 V 8.6140391 c 0,-0.3398438 0.03516,-0.4453125 0.855469,-0.4453125 h 0.28125 v -0.28125 c -0.316407,0.035156 -1.136719,0.035156 -1.488282,0.035156 -0.421875,0 -0.972656,0 -1.382812,-0.035156 v 0.28125 h 0.210937 c 0.691407,0 0.714844,0.1054687 0.714844,0.4335937 v 4.7226567 c 0,0.339843 -0.02344,0.433593 -0.714844,0.433593 h -0.210937 v 0.28125 h 4.792969 z m 2.053711,-1.652344 -1.289062,0.09375 v 0.28125 c 0.574218,0 0.65625,0.04687 0.65625,0.492188 v 2.414062 c 0,0.410156 -0.105469,0.410156 -0.691407,0.410156 v 0.28125 c 0.398438,-0.02344 0.585938,-0.02344 0.984375,-0.02344 0.140625,0 0.527344,0 0.960938,0.02344 v -0.28125 c -0.585938,0 -0.621094,-0.04687 -0.621094,-0.398437 z m 0.03516,-1.5703124 c 0,-0.2695313 -0.222656,-0.4921875 -0.492187,-0.4921875 -0.28125,0 -0.480469,0.234375 -0.480469,0.4921875 0,0.2578125 0.199219,0.4804687 0.480469,0.4804687 0.269531,0 0.492187,-0.2109375 0.492187,-0.4804687 z m 2.009766,3.9375004 c 0.222656,0.140625 0.503906,0.269531 0.914063,0.269531 0.855468,0 1.511718,-0.609375 1.511718,-1.324219 0,-0.433594 -0.257812,-0.738281 -0.375,-0.867187 0.363282,-0.328125 0.785157,-0.328125 0.890625,-0.328125 -0.04687,0.03516 -0.117187,0.07031 -0.117187,0.234375 0,0.105468 0.07031,0.269531 0.269531,0.269531 0.128906,0 0.269531,-0.08203 0.269531,-0.28125 0,-0.164063 -0.128906,-0.4453127 -0.480468,-0.4453127 -0.269532,0 -0.667969,0.1054687 -0.984375,0.4218747 -0.246094,-0.199218 -0.597657,-0.316406 -0.972657,-0.316406 -0.855468,0 -1.5,0.609375 -1.5,1.3125 0,0.46875 0.269532,0.785156 0.410157,0.925781 -0.01172,0.01172 -0.269532,0.328125 -0.269532,0.75 0,0.304688 0.140625,0.621094 0.386719,0.785157 -0.457031,0.140625 -0.820312,0.480468 -0.820312,0.902343 0,0.632813 0.890625,1.148438 2.050781,1.148438 1.101562,0 2.050781,-0.46875 2.050781,-1.171875 0,-0.363281 -0.175781,-0.761719 -0.503906,-0.972656 -0.503906,-0.316407 -1.03125,-0.316407 -1.886719,-0.316407 -0.175781,0 -0.46875,0 -0.539062,-0.02344 -0.257813,-0.04687 -0.433594,-0.292969 -0.433594,-0.585938 0,-0.140625 0.04687,-0.269531 0.128906,-0.386718 z m 0.914063,0.03516 c -0.796875,0 -0.796875,-0.890625 -0.796875,-1.089844 0,-0.234375 0.02344,-0.539062 0.175781,-0.761719 0.128906,-0.175781 0.375,-0.316406 0.621094,-0.316406 0.808593,0 0.808593,0.878906 0.808593,1.078125 0,0.210938 0,1.089844 -0.808593,1.089844 z m 0.421875,1.523437 c 0.28125,0 1.394531,0.01172 1.394531,0.738282 0,0.515625 -0.691406,0.914062 -1.546875,0.914062 -0.878906,0 -1.546875,-0.421875 -1.546875,-0.914062 0,-0.140625 0.09375,-0.738282 0.867187,-0.738282 z m 3.814453,-6.1992184 -1.335938,0.09375 v 0.28125 c 0.609375,0 0.691406,0.070312 0.691406,0.5039062 v 4.6757812 c 0,0.410156 -0.09375,0.410156 -0.691406,0.410156 v 0.28125 c 0.421875,-0.02344 0.597656,-0.02344 1.019531,-0.02344 0.433594,0 0.550782,0 1.03125,0.02344 v -0.28125 c -0.597656,0 -0.691406,0 -0.691406,-0.410156 v -1.640625 c 0,-0.949219 0.667969,-1.417969 1.242188,-1.417969 0.527343,0 0.644531,0.433594 0.644531,0.972657 v 2.085937 c 0,0.410156 -0.09375,0.410156 -0.691406,0.410156 v 0.28125 c 0.421875,-0.02344 0.597656,-0.02344 1.03125,-0.02344 0.421875,0 0.539062,0 1.019531,0.02344 v -0.28125 c -0.457031,0 -0.679688,0 -0.691406,-0.28125 v -1.722656 c 0,-0.75 0,-1.007812 -0.257813,-1.324219 -0.199219,-0.246093 -0.539062,-0.363281 -0.996094,-0.363281 -0.597656,0 -1.042968,0.304688 -1.324218,0.808594 z m 6.155273,2.6484374 v -0.28125 h -1.3125 V 8.5085703 h -0.246094 c -0.01172,0.75 -0.328125,1.6757817 -1.195312,1.7109377 v 0.222656 h 0.773437 v 2.484375 c 0,1.007813 0.738282,1.207031 1.207032,1.207031 0.609375,0 0.925781,-0.574218 0.925781,-1.207031 v -0.515625 h -0.257813 v 0.480469 c 0,0.667969 -0.28125,0.996094 -0.597656,0.996094 -0.609375,0 -0.609375,-0.796875 -0.609375,-0.949219 v -2.496094 z m 2.34375,1.265625 c 0,-0.972656 0.703125,-1.417969 1.242188,-1.417969 0.492187,0 0.65625,0.351563 0.65625,0.972657 v 2.085937 c 0,0.410156 -0.105469,0.410156 -0.691407,0.410156 v 0.28125 c 0.421875,-0.02344 0.585938,-0.02344 1.019532,-0.02344 0.433593,0 0.550781,0 1.03125,0.02344 v -0.28125 c -0.597657,0 -0.691407,0 -0.691407,-0.410156 v -1.640625 c 0,-0.972656 0.703125,-1.417969 1.242188,-1.417969 0.492187,0 0.65625,0.351563 0.65625,0.972657 v 2.085937 c 0,0.410156 -0.105469,0.410156 -0.691406,0.410156 v 0.28125 c 0.421875,-0.02344 0.585937,-0.02344 1.019531,-0.02344 0.433594,0 0.550781,0 1.03125,0.02344 v -0.28125 c -0.457031,0 -0.691406,0 -0.691406,-0.28125 v -1.722656 c 0,-0.785156 0,-1.03125 -0.304688,-1.371094 -0.1875,-0.210937 -0.550781,-0.316406 -0.960937,-0.316406 -0.644532,0 -1.089844,0.375 -1.335938,0.855469 -0.117187,-0.539063 -0.46875,-0.855469 -1.230469,-0.855469 -0.714843,0 -1.160156,0.457031 -1.347656,0.878906 h -0.01172 v -0.878906 l -1.300781,0.09375 v 0.28125 c 0.609375,0 0.691406,0.05859 0.691406,0.503906 v 2.402344 c 0,0.410156 -0.09375,0.410156 -0.691406,0.410156 v 0.28125 c 0.421875,-0.02344 0.597656,-0.02344 1.019531,-0.02344 0.433594,0 0.550782,0 1.03125,0.02344 v -0.28125 c -0.597656,0 -0.691406,0 -0.691406,-0.410156 z m 9.114258,1.6875 c 0.03516,0.375 0.304687,0.703125 0.691406,0.703125 0.222656,0 0.785156,-0.140625 0.785156,-0.855469 v -0.50391 H 52.12693 v 0.492188 c 0,0.09375 0,0.550781 -0.328125,0.550781 -0.316407,0 -0.316407,-0.433594 -0.316407,-0.574219 v -1.582031 c 0,-0.515625 0,-0.820313 -0.410156,-1.183594 -0.328125,-0.304687 -0.761719,-0.433594 -1.21875,-0.433594 -0.75,0 -1.382812,0.375 -1.382812,0.949219 0,0.28125 0.1875,0.433594 0.421875,0.433594 0.246093,0 0.410156,-0.175781 0.410156,-0.410156 0,-0.386719 -0.386719,-0.433594 -0.398438,-0.433594 0.246094,-0.234375 0.679688,-0.316406 0.9375,-0.316406 0.457032,0 0.972657,0.339843 0.972657,1.136718 v 0.292969 c -0.492188,0.02344 -1.160157,0.07031 -1.769532,0.351563 -0.644531,0.316406 -0.84375,0.785156 -0.84375,1.148437 0,0.738281 0.878907,0.972656 1.476563,0.972656 0.75,0 1.089844,-0.492187 1.21875,-0.738281 z m -0.08203,-0.621094 c 0,0.867188 -0.679688,1.136719 -1.078125,1.136719 -0.421875,0 -0.820313,-0.304687 -0.820313,-0.75 0,-0.597656 0.515625,-1.230469 1.898438,-1.277344 z m 3.254883,-1.757812 c 0.304687,-0.527344 0.796875,-0.703125 1.183593,-0.703125 0.703125,0 1.242188,0.808594 1.242188,1.78125 0,1.03125 -0.621094,1.816406 -1.347656,1.816406 -0.398438,0 -0.75,-0.234375 -0.960938,-0.550781 -0.117187,-0.175781 -0.117187,-0.1875 -0.117187,-0.363281 z m 0,2.589844 c 0.234375,0.234375 0.539062,0.527343 1.136718,0.527343 1.066407,0 2.0625,-0.855468 2.0625,-2.039062 0,-1.136719 -0.890625,-2.027344 -1.945312,-2.027344 -0.492188,0 -0.9375,0.1875 -1.277344,0.5625 v -0.5625 l -1.335937,0.09375 v 0.28125 c 0.644531,0 0.691406,0.04687 0.691406,0.433594 v 4.21875 c 0,0.410156 -0.09375,0.410156 -0.691406,0.410156 v 0.28125 c 0.421875,-0.02344 0.597656,-0.02344 1.03125,-0.02344 0.421875,0 0.539062,0 1.019531,0.02344 v -0.28125 c -0.597656,0 -0.691406,0 -0.691406,-0.410156 z m 0,0"
       style="fill:#000000;fill-opacity:1;fill-rule:nonzero;stroke:none"
       aria-label="Render&#10;VolumetricLightmap"
       transform="matrix(1.3333333,0,0,1.3333333,345.50133,122.90133)" />
    <path
       id="path12"
       d="m 301.68733,50.48967 h -73.66289 c -1.65071,0 -2.98883,-1.33812 -2.98883,-2.98883 V 24.43892 c 0,-1.65071 1.33812,-2.98883 2.98883,-2.98883 h 73.66289 c 1.6507,0 2.98883,1.33812 2.98883,2.98883 v 23.06192 c 0,1.65071 -1.33813,2.98883 -2.98883,2.98883 z"
       style="fill:none;stroke:#000000;stroke-width:0.3985;stroke-linecap:butt;stroke-linejoin:miter;stroke-miterlimit:10;stroke-dasharray:none;stroke-opacity:1"
       transform="matrix(1.3333333,0,0,-1.3333333,48.482667,74.225333)" />
    <path
       id="path13"
       d="m 2.0635234,-3.1878125 v -2.3085937 c 0,-0.234375 0.011719,-0.3164063 0.1875,-0.3515625 0.082031,-0.023437 0.3632813,-0.023437 0.5625,-0.023437 0.7734375,0 1.9101563,0 1.9101563,1.3476562 0,0.7734375 -0.3984375,1.3359375 -1.6171875,1.3359375 z m 2.0273438,0.140625 C 4.9463359,-3.2932812 5.6494609,-3.820625 5.6494609,-4.52375 c 0,-0.890625 -1.0898437,-1.6289062 -2.4140625,-1.6289062 H 0.36430469 v 0.28125 h 0.19921875 c 0.70312496,0 0.71484376,0.1054687 0.71484376,0.4335937 v 4.72265625 c 0,0.33984375 -0.011719,0.43359375 -0.71484376,0.43359375 H 0.36430469 v 0.28125 C 0.78617969,-0.02375 1.2314922,-0.02375 1.6650859,-0.02375 c 0.4335938,0 0.8789063,0 1.3125,0.0234375 v -0.28125 H 2.7783672 c -0.703125,0 -0.7148438,-0.09375 -0.7148438,-0.43359375 V -2.9651562 h 1.078125 c 0.6445313,0 0.9375,0.3515625 0.9726563,0.3867187 0.2695312,0.328125 0.2695312,0.46875 0.2695312,1.1015625 0,0.609375 0,0.99609375 0.4335938,1.3359375 0.421875,0.33984375 0.9609375,0.33984375 1.0664062,0.33984375 0.75,0 0.890625,-0.78515625 0.890625,-0.99609375 0,-0.0585938 0,-0.1640625 -0.1289062,-0.1640625 -0.1171875,0 -0.1171875,0.0820313 -0.1289063,0.15234375 -0.046875,0.5625 -0.328125,0.78515625 -0.5976562,0.78515625 -0.2929688,0 -0.3867188,-0.1875 -0.46875,-0.33984375 C 5.3682109,-0.5628125 5.2978984,-1.1721875 5.2393047,-1.570625 5.1689922,-2.133125 5.0869609,-2.7307812 4.0908672,-3.0471875 Z m 6.3164058,0.984375 c 0.199219,0 0.246094,0 0.246094,-0.1875 0,-0.9257812 -0.503906,-1.78125 -1.6523436,-1.78125 -1.0898437,0 -1.9335937,0.9375 -1.9335937,2.0507813 0,1.1835937 0.9492187,2.0742187 2.0507812,2.0742187 1.0898441,0 1.5351561,-0.9609375 1.5351561,-1.1601562 0,-0.070312 -0.04687,-0.1171875 -0.128906,-0.1171875 -0.08203,0 -0.117188,0.058594 -0.128906,0.09375 -0.304688,0.91406245 -1.1015628,0.93749995 -1.2421878,0.93749995 -0.421875,0 -0.796875,-0.24609375 -1.0078125,-0.55078125 C 7.8525859,-1.14875 7.8408672,-1.6878125 7.8408672,-2.0628125 Z M 7.8525859,-2.27375 c 0.082031,-1.3945312 0.890625,-1.5351562 1.1484375,-1.5351562 0.4921875,0 1.0312496,0.375 1.0429686,1.5351562 z M 12.59868,-2.332344 c 0,-0.9492188 0.667968,-1.4179688 1.242187,-1.4179688 0.527344,0 0.644531,0.4335938 0.644531,0.9726563 v 2.08593745 c 0,0.41015625 -0.09375,0.41015625 -0.691406,0.41015625 v 0.28125 c 0.421875,-0.0234375 0.597656,-0.0234375 1.03125,-0.0234375 0.421875,0 0.539063,0 1.019531,0.0234375 v -0.28125 c -0.457031,0 -0.679687,0 -0.691406,-0.28125 V -2.285469 c 0,-0.75 0,-1.0078125 -0.257812,-1.3242188 -0.199219,-0.2460937 -0.539063,-0.3632812 -0.996094,-0.3632812 -0.832031,0 -1.21875,0.6210937 -1.347656,0.8671875 h -0.01172 V -3.972969 l -1.300781,0.09375 v 0.28125 c 0.609375,0 0.691406,0.058594 0.691406,0.5039062 v 2.40234375 c 0,0.41015625 -0.09375,0.41015625 -0.691406,0.41015625 v 0.28125 C 11.66118,-0.02375 11.836961,-0.02375 12.258836,-0.02375 c 0.433594,0 0.550781,0 1.03125,0.0234375 v -0.28125 c -0.597656,0 -0.691406,0 -0.691406,-0.41015625 z m 6.966797,1.2539062 c 0,0.1640625 0,0.1875 -0.140625,0.375 -0.28125,0.41015625 -0.691407,0.57421875 -1.054688,0.57421875 -0.386719,0 -0.738281,-0.2109375 -0.972656,-0.5859375 -0.234375,-0.38671875 -0.257813,-0.92578125 -0.257813,-1.20703125 0,-0.421875 0.05859,-0.9023437 0.292969,-1.265625 0.199219,-0.28125 0.5625,-0.5625 1.042969,-0.5625 0.375,0 0.738281,0.1875 0.984375,0.5273438 0.105469,0.140625 0.105469,0.1523437 0.105469,0.328125 z m 0.02344,-2.3671875 c -0.04687,-0.058594 -0.445312,-0.5273437 -1.148437,-0.5273437 -1.113282,0 -2.074219,0.8789062 -2.074219,2.0390625 0,1.12499995 0.902344,2.0273437 1.96875,2.0273437 0.65625,0 1.066406,-0.38671875 1.230469,-0.57421875 V 0.0934375 l 1.359375,-0.09375 v -0.28125 c -0.621094,0 -0.691407,-0.0585938 -0.691407,-0.50390625 V -6.2464062 l -1.335937,0.09375 v 0.28125 c 0.609375,0 0.691406,0.070312 0.691406,0.5039062 z m 5.208984,1.3828125 c 0.199219,0 0.246094,0 0.246094,-0.1875 0,-0.9257812 -0.503906,-1.78125 -1.652344,-1.78125 -1.089843,0 -1.933593,0.9375 -1.933593,2.0507813 0,1.1835937 0.949218,2.0742187 2.050781,2.0742187 1.089844,0 1.535156,-0.9609375 1.535156,-1.1601562 0,-0.070312 -0.04687,-0.1171875 -0.128906,-0.1171875 -0.08203,0 -0.117188,0.058594 -0.128906,0.09375 -0.304688,0.91406245 -1.101563,0.93749995 -1.242188,0.93749995 -0.421875,0 -0.796875,-0.24609375 -1.007812,-0.55078125 -0.292969,-0.4453125 -0.304688,-0.984375 -0.304688,-1.359375 z M 22.243211,-2.27375 c 0.08203,-1.3945312 0.890625,-1.5351562 1.148437,-1.5351562 0.492188,0 1.03125,0.375 1.042969,1.5351562 z m 4.678711,0.2109375 c 0,-0.3632812 0.09375,-1.6875 1.125,-1.6875 v 0.011719 c -0.02344,0 -0.164063,0.1054687 -0.164063,0.328125 0,0.2460937 0.1875,0.3984375 0.398438,0.3984375 0.1875,0 0.386719,-0.140625 0.386719,-0.4101563 0,-0.28125 -0.269532,-0.5507812 -0.667969,-0.5507812 -0.539063,0 -0.914063,0.375 -1.125,0.9257812 h -0.01172 v -0.9257812 l -1.277344,0.09375 v 0.28125 c 0.609375,0 0.691407,0.058594 0.691407,0.5039062 v 2.40234375 c 0,0.41015625 -0.09375,0.41015625 -0.691407,0.41015625 v 0.28125 c 0.48047,-0.0234377 0.597658,-0.0234377 1.054689,-0.0234377 0.363281,0 0.574219,0 1.136719,0.0234375 v -0.28125 h -0.175782 c -0.65625,0 -0.679687,-0.09375 -0.679687,-0.43359375 z M -18.291945,12.53875 c 0,0.796875 -0.445313,1.371094 -1.101563,1.371094 -0.738281,0 -0.785156,-0.386719 -0.785156,-0.867188 v -2.976562 l -1.359375,0.09375 v 0.28125 c 0.691406,0 0.691406,0.02344 0.691406,0.820312 v 1.359375 c 0,0.585938 0,0.960938 0.410156,1.277344 0.269532,0.175781 0.632813,0.234375 0.996094,0.234375 0.46875,0 0.902344,-0.199219 1.171875,-0.738281 V 14.1325 l 1.335938,-0.09375 V 13.7575 c -0.609375,0 -0.691407,-0.05859 -0.691407,-0.503906 v -3.1875 l -1.359375,0.09375 v 0.28125 c 0.609375,0 0.691407,0.05859 0.691407,0.503906 z m 3.193359,-1.699219 c -0.02344,-0.04687 -0.04687,-0.105468 -0.04687,-0.164062 0,-0.234375 0.328125,-0.234375 0.503906,-0.234375 v -0.28125 c -0.386718,0.02344 -0.597656,0.02344 -0.996093,0.02344 -0.316407,0 -0.574219,0 -0.902344,-0.02344 v 0.28125 c 0.421875,0 0.597656,0 0.738281,0.328125 l 1.3125,3.199219 c 0.04687,0.140625 0.117188,0.164062 0.199219,0.164062 0.08203,0 0.152344,-0.01172 0.222656,-0.164062 l 1.21875,-2.953125 c 0.1875,-0.457032 0.503906,-0.5625 0.820313,-0.574219 v -0.28125 c -0.269532,0.02344 -0.667969,0.02344 -0.691407,0.02344 -0.257812,0 -0.527343,0 -0.785156,-0.02344 v 0.28125 c 0.257813,0.01172 0.421875,0.152344 0.421875,0.386719 0,0.09375 -0.01172,0.105468 -0.04687,0.199218 l -0.9375,2.273438 z m 4.942383,0.867188 c 0,-0.972656 0.7031249,-1.417969 1.2421874,-1.417969 0.4921875,0 0.65625,0.351563 0.65625,0.972656 v 2.085938 c 0,0.410156 -0.1054688,0.410156 -0.6914063,0.410156 v 0.28125 c 0.421875,-0.02344 0.5859375,-0.02344 1.0195313,-0.02344 0.4335937,0 0.5507812,0 1.03125,0.02344 V 13.7575 c -0.5976563,0 -0.6914063,0 -0.6914063,-0.410156 v -1.640625 c 0,-0.972656 0.703125,-1.417969 1.2421875,-1.417969 0.4921875,0 0.65625,0.351563 0.65625,0.972656 v 2.085938 c 0,0.410156 -0.1054687,0.410156 -0.6914062,0.410156 v 0.28125 c 0.421875,-0.02344 0.5859375,-0.02344 1.0195312,-0.02344 0.4335938,0 0.5507813,0 1.03125,0.02344 V 13.7575 c -0.4570312,0 -0.6914062,0 -0.6914062,-0.28125 v -1.722656 c 0,-0.785156 0,-1.03125 -0.3046875,-1.371094 -0.1875,-0.210937 -0.5507813,-0.316406 -0.9609375,-0.316406 -0.6445313,0 -1.0898438,0.375 -1.3359375,0.855469 -0.1171875,-0.539063 -0.46875,-0.855469 -1.2304688,-0.855469 -0.7148437,0 -1.1601561,0.457031 -1.3476561,0.878906 h -0.01172 v -0.878906 l -1.300781,0.09375 v 0.28125 c 0.609375,0 0.691406,0.05859 0.691406,0.503906 v 2.402344 c 0,0.410156 -0.09375,0.410156 -0.691406,0.410156 v 0.28125 c 0.421875,-0.02344 0.597656,-0.02344 1.019531,-0.02344 0.433594,0 0.5507814,0 1.0312501,0.02344 V 13.7575 c -0.5976561,0 -0.6914061,0 -0.6914061,-0.410156 z m 9.62988269,0.269531 c 0.19921875,0 0.24609375,0 0.24609375,-0.1875 0,-0.925781 -0.50390625,-1.78125 -1.65234374,-1.78125 -1.0898438,0 -1.9335938,0.9375 -1.9335938,2.050781 0,1.183594 0.9492188,2.074219 2.0507813,2.074219 1.08984374,0 1.53515624,-0.960937 1.53515624,-1.160156 0,-0.07031 -0.046875,-0.117188 -0.12890625,-0.117188 -0.0820313,0 -0.1171875,0.05859 -0.12890625,0.09375 -0.3046875,0.914063 -1.10156254,0.9375 -1.24218754,0.9375 -0.421875,0 -0.796875,-0.246093 -1.0078125,-0.550781 C -3.0810078,12.890313 -3.0927266,12.35125 -3.0927266,11.97625 Z M -3.0810078,11.765313 c 0.082031,-1.394532 0.890625,-1.535157 1.1484375,-1.535157 0.4921875,0 1.03124999,0.375 1.04296874,1.535157 z m 6.1640625,-1.523438 c 0,-0.152344 0,-0.234375 -0.1054688,-0.234375 -0.046875,0 -0.058594,0 -0.1757812,0.105469 -0.023437,0.02344 -0.1054688,0.105469 -0.1523438,0.140625 -0.28125,-0.1875 -0.5625,-0.246094 -0.8671875,-0.246094 -1.19531246,0 -1.48828121,0.65625 -1.48828121,1.113281 0,0.292969 0.12890625,0.527344 0.33984375,0.726563 0.3046875,0.269531 0.64453126,0.339844 1.10156246,0.421875 0.4570313,0.08203 0.609375,0.117187 0.8085938,0.269531 0.09375,0.07031 0.3164062,0.234375 0.3164062,0.585938 0,0.785156 -0.9140625,0.785156 -1.03125,0.785156 -0.92578121,0 -1.16015621,-0.761719 -1.26562496,-1.253906 -0.0234375,-0.08203 -0.0351563,-0.140625 -0.140625,-0.140625 -0.12890625,0 -0.12890625,0.07031 -0.12890625,0.234375 v 1.148437 c 0,0.164063 0,0.234375 0.10546875,0.234375 0.0585938,0 0.0703125,0 0.234375,-0.175781 0.0351563,-0.05859 0.12890625,-0.175781 0.17578125,-0.210938 0.37500001,0.363282 0.78515621,0.386719 1.01953121,0.386719 1.1015625,0 1.4882813,-0.644531 1.4882813,-1.242187 0,-0.410157 -0.1757813,-0.65625 -0.375,-0.855469 -0.3046875,-0.304688 -0.6328125,-0.363281 -1.3007813,-0.492188 -0.234375,-0.04687 -0.89062496,-0.164062 -0.89062496,-0.667968 0,-0.292969 0.2109375,-0.667969 1.03124996,-0.667969 0.9726563,0 1.03125,0.75 1.0546875,0.972656 0,0.105469 0,0.164063 0.1171875,0.164063 0.1289063,0 0.1289063,-0.07031 0.1289063,-0.234375 z m 2.2089844,-2.4492188 -1.3359375,0.09375 v 0.2812501 c 0.609375,0 0.6914062,0.070312 0.6914062,0.5039062 v 4.6757815 c 0,0.410156 -0.09375,0.410156 -0.6914062,0.410156 v 0.28125 c 0.421875,-0.02344 0.5976562,-0.02344 1.0195312,-0.02344 0.4335938,0 0.5507813,0 1.03125,0.02344 V 13.7575 c -0.5976562,0 -0.6914062,0 -0.6914062,-0.410156 v -1.640625 c 0,-0.949219 0.6679687,-1.417969 1.2421875,-1.417969 0.5273437,0 0.6445312,0.433594 0.6445312,0.972656 v 2.085938 c 0,0.410156 -0.09375,0.410156 -0.6914062,0.410156 v 0.28125 c 0.421875,-0.02344 0.5976562,-0.02344 1.03125,-0.02344 0.421875,0 0.5390625,0 1.0195312,0.02344 V 13.7575 c -0.4570312,0 -0.6796875,0 -0.6914062,-0.28125 v -1.722656 c 0,-0.75 0,-1.007813 -0.2578125,-1.324219 -0.1992188,-0.246094 -0.5390625,-0.363281 -0.9960938,-0.363281 -0.5976562,0 -1.0429687,0.304687 -1.3242187,0.808594 z M 17.242234,11.718438 H 16.996141 C 16.890672,12.620781 16.773484,13.7575 15.156297,13.7575 h -0.785156 c -0.421875,0 -0.433594,-0.05859 -0.433594,-0.363281 V 8.6129688 c 0,-0.3398438 0.03516,-0.4453125 0.855469,-0.4453125 h 0.28125 V 7.8864062 c -0.316407,0.035156 -1.136719,0.035156 -1.488282,0.035156 -0.421875,0 -0.972656,0 -1.382812,-0.035156 v 0.2812501 h 0.210937 c 0.691407,0 0.714844,0.1054687 0.714844,0.4335937 v 4.722656 c 0,0.339844 -0.02344,0.433594 -0.714844,0.433594 h -0.210937 v 0.28125 h 4.792969 z m 2.056641,-1.652344 -1.289062,0.09375 v 0.28125 c 0.574218,0 0.65625,0.04687 0.65625,0.492187 v 2.414063 c 0,0.410156 -0.105469,0.410156 -0.691407,0.410156 v 0.28125 c 0.398438,-0.02344 0.585938,-0.02344 0.984375,-0.02344 0.140625,0 0.527344,0 0.960938,0.02344 V 13.7575 c -0.585938,0 -0.621094,-0.04687 -0.621094,-0.398437 z m 0.03516,-1.5703127 c 0,-0.2695313 -0.222656,-0.4921875 -0.492187,-0.4921875 -0.28125,0 -0.480469,0.234375 -0.480469,0.4921875 0,0.2578125 0.199219,0.4804687 0.480469,0.4804687 0.269531,0 0.492187,-0.2109375 0.492187,-0.4804687 z m 2.006836,3.9374997 c 0.222656,0.140625 0.503906,0.269532 0.914063,0.269532 0.855468,0 1.511718,-0.609375 1.511718,-1.324219 0,-0.433594 -0.257812,-0.738281 -0.375,-0.867188 0.363282,-0.328125 0.785157,-0.328125 0.890625,-0.328125 -0.04687,0.03516 -0.117187,0.07031 -0.117187,0.234375 0,0.105469 0.07031,0.269532 0.269531,0.269532 0.128906,0 0.269531,-0.08203 0.269531,-0.28125 0,-0.164063 -0.128906,-0.445313 -0.480468,-0.445313 -0.269532,0 -0.667969,0.105469 -0.984375,0.421875 -0.246094,-0.199219 -0.597657,-0.316406 -0.972657,-0.316406 -0.855468,0 -1.5,0.609375 -1.5,1.3125 0,0.46875 0.269532,0.785156 0.410157,0.925781 -0.01172,0.01172 -0.269532,0.328125 -0.269532,0.75 0,0.304688 0.140625,0.621094 0.386719,0.785156 -0.457031,0.140625 -0.820312,0.480469 -0.820312,0.902344 0,0.632813 0.890625,1.148438 2.050781,1.148438 1.101562,0 2.050781,-0.46875 2.050781,-1.171875 0,-0.363282 -0.175781,-0.761719 -0.503906,-0.972657 -0.503906,-0.316406 -1.03125,-0.316406 -1.886719,-0.316406 -0.175781,0 -0.46875,0 -0.539062,-0.02344 -0.257813,-0.04687 -0.433594,-0.292969 -0.433594,-0.585938 0,-0.140625 0.04687,-0.269531 0.128906,-0.386719 z m 0.914063,0.03516 c -0.796875,0 -0.796875,-0.890625 -0.796875,-1.089844 0,-0.234375 0.02344,-0.539063 0.175781,-0.761719 0.128906,-0.175781 0.375,-0.316406 0.621094,-0.316406 0.808593,0 0.808593,0.878906 0.808593,1.078125 0,0.210937 0,1.089844 -0.808593,1.089844 z m 0.421875,1.523437 c 0.28125,0 1.394531,0.01172 1.394531,0.738281 0,0.515625 -0.691406,0.914063 -1.546875,0.914063 -0.878906,0 -1.546875,-0.421875 -1.546875,-0.914063 0,-0.140625 0.09375,-0.738281 0.867187,-0.738281 z m 3.805664,-6.1992188 -1.335938,0.09375 v 0.2812501 c 0.609375,0 0.691407,0.070312 0.691407,0.5039062 v 4.6757815 c 0,0.410156 -0.09375,0.410156 -0.691407,0.410156 v 0.28125 c 0.421875,-0.02344 0.597657,-0.02344 1.019532,-0.02344 0.433593,0 0.550781,0 1.03125,0.02344 V 13.7575 c -0.597657,0 -0.691407,0 -0.691407,-0.410156 v -1.640625 c 0,-0.949219 0.667969,-1.417969 1.242188,-1.417969 0.527344,0 0.644531,0.433594 0.644531,0.972656 v 2.085938 c 0,0.410156 -0.09375,0.410156 -0.691406,0.410156 v 0.28125 c 0.421875,-0.02344 0.597656,-0.02344 1.03125,-0.02344 0.421875,0 0.539062,0 1.019531,0.02344 V 13.7575 c -0.457031,0 -0.679687,0 -0.691406,-0.28125 v -1.722656 c 0,-0.75 0,-1.007813 -0.257813,-1.324219 -0.199218,-0.246094 -0.539062,-0.363281 -0.996093,-0.363281 -0.597657,0 -1.042969,0.304687 -1.324219,0.808594 z m 6.164062,2.6484378 v -0.28125 h -1.3125 V 8.5075 h -0.246093 c -0.01172,0.75 -0.328125,1.675781 -1.195313,1.710938 v 0.222656 h 0.773438 v 2.484375 c 0,1.007812 0.738281,1.207031 1.207031,1.207031 0.609375,0 0.925781,-0.574219 0.925781,-1.207031 v -0.515625 h -0.257812 v 0.480469 c 0,0.667968 -0.28125,0.996093 -0.597657,0.996093 -0.609375,0 -0.609375,-0.796875 -0.609375,-0.949218 v -2.496094 z m 2.34375,1.265625 c 0,-0.972656 0.703125,-1.417969 1.242188,-1.417969 0.492187,0 0.65625,0.351563 0.65625,0.972656 v 2.085938 c 0,0.410156 -0.105469,0.410156 -0.691406,0.410156 v 0.28125 c 0.421875,-0.02344 0.585937,-0.02344 1.019531,-0.02344 0.433594,0 0.550781,0 1.03125,0.02344 V 13.7575 c -0.597656,0 -0.691406,0 -0.691406,-0.410156 v -1.640625 c 0,-0.972656 0.703125,-1.417969 1.242187,-1.417969 0.492188,0 0.65625,0.351563 0.65625,0.972656 v 2.085938 c 0,0.410156 -0.105469,0.410156 -0.691406,0.410156 v 0.28125 c 0.421875,-0.02344 0.585937,-0.02344 1.019531,-0.02344 0.433594,0 0.550781,0 1.03125,0.02344 V 13.7575 c -0.457031,0 -0.691406,0 -0.691406,-0.28125 v -1.722656 c 0,-0.785156 0,-1.03125 -0.304688,-1.371094 -0.1875,-0.210937 -0.550781,-0.316406 -0.960937,-0.316406 -0.644531,0 -1.089844,0.375 -1.335938,0.855469 -0.117187,-0.539063 -0.46875,-0.855469 -1.230468,-0.855469 -0.714844,0 -1.160157,0.457031 -1.347657,0.878906 h -0.01172 v -0.878906 l -1.300782,0.09375 v 0.28125 c 0.609375,0 0.691407,0.05859 0.691407,0.503906 v 2.402344 c 0,0.410156 -0.09375,0.410156 -0.691407,0.410156 v 0.28125 c 0.421875,-0.02344 0.597657,-0.02344 1.019532,-0.02344 0.433593,0 0.550781,0 1.03125,0.02344 V 13.7575 c -0.597657,0 -0.691407,0 -0.691407,-0.410156 z m 9.114258,1.6875 c 0.03516,0.375 0.304688,0.703125 0.691406,0.703125 0.222657,0 0.785157,-0.140625 0.785157,-0.855469 v -0.503906 h -0.246094 v 0.492187 c 0,0.09375 0,0.550782 -0.328125,0.550782 -0.316406,0 -0.316406,-0.433594 -0.316406,-0.574219 v -1.582031 c 0,-0.515625 0,-0.820313 -0.410157,-1.183594 -0.328125,-0.304688 -0.761718,-0.433594 -1.21875,-0.433594 -0.75,0 -1.382812,0.375 -1.382812,0.949219 0,0.28125 0.1875,0.433594 0.421875,0.433594 0.246094,0 0.410156,-0.175782 0.410156,-0.410157 0,-0.386718 -0.386719,-0.433593 -0.398437,-0.433593 0.246093,-0.234375 0.679687,-0.316407 0.9375,-0.316407 0.457031,0 0.972656,0.339844 0.972656,1.136719 v 0.292969 c -0.492188,0.02344 -1.160156,0.07031 -1.769531,0.351562 -0.644532,0.316407 -0.84375,0.785157 -0.84375,1.148438 0,0.738281 0.878906,0.972656 1.476562,0.972656 0.75,0 1.089844,-0.492187 1.21875,-0.738281 z m -0.08203,-0.621094 c 0,0.867188 -0.679688,1.136719 -1.078125,1.136719 -0.421875,0 -0.820313,-0.304688 -0.820313,-0.75 0,-0.597656 0.515625,-1.230469 1.898438,-1.277344 z m 3.254883,-1.757812 c 0.304687,-0.527344 0.796875,-0.703125 1.183593,-0.703125 0.703125,0 1.242188,0.808593 1.242188,1.78125 0,1.03125 -0.621094,1.816406 -1.347656,1.816406 -0.398438,0 -0.75,-0.234375 -0.960938,-0.550781 -0.117187,-0.175782 -0.117187,-0.1875 -0.117187,-0.363282 z m 0,2.589843 c 0.234375,0.234375 0.539062,0.527344 1.136718,0.527344 1.066407,0 2.0625,-0.855469 2.0625,-2.039062 0,-1.136719 -0.890625,-2.027344 -1.945312,-2.027344 -0.492188,0 -0.9375,0.1875 -1.277344,0.5625 v -0.5625 l -1.335937,0.09375 v 0.28125 c 0.644531,0 0.691406,0.04687 0.691406,0.433594 v 4.21875 c 0,0.410156 -0.09375,0.410156 -0.691406,0.410156 v 0.28125 c 0.421875,-0.02344 0.597656,-0.02344 1.03125,-0.02344 0.421875,0 0.539062,0 1.019531,0.02344 v -0.28125 c -0.597656,0 -0.691406,0 -0.691406,-0.410156 z m 0,0"
       style="fill:#000000;fill-opacity:1;fill-rule:nonzero;stroke:none"
       aria-label="Render&#10;uvmeshLightmap"
       transform="matrix(1.3333333,0,0,1.3333333,382.33067,19.906667)" />
    <path
       id="path14"
       d="m 392.79553,1.2089 h -56.38522 c -1.65071,0 -2.98883,-1.33811 -2.98883,-2.98882 v -12.44759 c 0,-1.65071 1.33812,-2.98883 2.98883,-2.98883 h 56.38522 c 1.65071,0 2.98883,1.33812 2.98883,2.98883 v 12.44759 c 0,1.65071 -1.33812,2.98882 -2.98883,2.98882 z"
       style="fill:none;stroke:#000000;stroke-width:0.3985;stroke-linecap:butt;stroke-linejoin:miter;stroke-miterlimit:10;stroke-dasharray:none;stroke-opacity:1"
       transform="matrix(1.3333333,0,0,-1.3333333,48.482667,74.225333)" />
    <g
       id="g14"
       aria-label="结束"
       transform="matrix(1.3333333,0,0,1.3333333,522.61333,89.097333)">
      <path
         id="path15"
         d="m 5.6952734,-5.4841328 c 0,-0.9609375 -0.011719,-1.59375 -0.035156,-1.8984375 l 0.84375,0.4570312 -0.3515625,0.2460938 v 1.1953125 h 1.3007812 l 0.421875,-0.421875 0.5976563,0.6328125 H 6.1523047 v 1.5820312 h 0.9492187 l 0.421875,-0.421875 0.5976563,0.6328125 H 5.1327734 c -0.3046875,0 -0.5859375,0.035156 -0.84375,0.1054688 L 3.9726172,-3.6911641 H 5.6952734 V -5.2731953 H 4.8163672 c -0.3046875,0 -0.5859375,0.035156 -0.84375,0.1054687 L 3.6562109,-5.4841328 Z M 4.2538672,0.84399219 c 0.023437,-0.515625 0.035156,-1.11328125 0.035156,-1.79296875 0,-0.67968754 -0.011719,-1.26562504 -0.035156,-1.75781254 l 0.5625,0.3164063 h 2.390625 l 0.3164062,-0.3164063 0.4921875,0.4921875 -0.3164062,0.2109375 v 1.44140629 c 0,0.515625 0.011719,0.87890625 0.035156,1.08984375 l -0.4921875,0.2109375 v -0.703125 H 4.7460547 v 0.5625 z M 4.7460547,-2.1794453 v 2.00390624 H 7.2421484 V -2.1794453 Z m -3.375,0 2.4257812,-0.3867188 v 0.140625 c -0.28125,0.070312 -0.7265625,0.1962891 -1.3359375,0.375 -0.609375,0.1728516 -1.0546875,0.3632813 -1.3359375,0.5742188 L 0.73824219,-2.1091328 c 0.1875,-0.070312 0.36328121,-0.1875 0.52734371,-0.3515625 0.1640625,-0.1640625 0.5507813,-0.6679688 1.1601563,-1.5117188 -0.28125,0.046875 -0.5507813,0.1025391 -0.8085938,0.1640625 -0.2578125,0.055664 -0.5039062,0.1523438 -0.73828121,0.2929688 L 0.56246094,-4.1481953 c 0.234375,0 0.50683596,-0.3310547 0.82031246,-0.9960938 0.319336,-0.6708984 0.5742188,-1.359375 0.7617188,-2.0625 l 0.7382812,0.3867188 -0.3164062,0.1757812 c -0.4921875,0.9375 -0.9726563,1.7695313 -1.4414063,2.4960938 l 1.40625,-0.035156 C 2.8124609,-4.6286638 3.0351172,-5.03882 3.1991797,-5.41382 l 0.6328125,0.4570312 -0.3164063,0.1757813 c -0.65625,0.8671875 -1.3710937,1.734375 -2.1445312,2.6015622 z M 0.91402344,0.35180469 0.56246094,-0.31616406 c 0.328125,-0.046875 0.71777346,-0.12011719 1.17187496,-0.22265625 0.459961,-0.10839844 1.171875,-0.3046875 2.1328125,-0.58593749 l 0.035156,0.14062499 c -1.734375,0.6796875 -2.7304688,1.125 -2.98828096,1.3359375 z m 0,0"
         style="fill:#000000;fill-opacity:1;fill-rule:nonzero;stroke:none" />
      <path
         id="path16"
         d="m 13.710898,-4.5700703 v 1.6523437 h 1.96875 v -1.6523437 z m -3.023437,2.6015625 c 0.02344,-0.46875 0.03516,-0.975586 0.03516,-1.5234375 0,-0.553711 -0.01172,-1.0898438 -0.03516,-1.6054688 l 0.597656,0.3164063 h 1.898438 v -1.125 h -2.496094 c -0.304688,0 -0.585938,0.035156 -0.8437501,0.1054687 L 9.5273047,-6.1169453 h 3.6562503 c 0,-0.4453125 -0.01172,-0.8789063 -0.03516,-1.3007813 l 0.914063,0.3867188 -0.351563,0.28125 v 0.6328125 h 2.636719 l 0.492188,-0.4921875 0.703125,0.703125 h -3.832032 v 1.125 h 1.898438 l 0.28125,-0.3867188 0.597656,0.4570313 -0.28125,0.2109375 c 0,0.984375 0.01172,1.6640625 0.03516,2.0390625 l -0.5625,0.2460937 v -0.4921875 h -1.617187 c 0.75,1.359375 1.886719,2.19140629 3.410156,2.49609379 v 0.140625 c -0.445312,0.0703124975 -0.703125,0.234375 -0.773437,0.4921875 -1.40625,-0.79394532 -2.34375,-1.83984379 -2.8125,-3.12890629 h -0.175782 c 0,1.85156254 0.01172,2.96484379 0.03516,3.33984379 l -0.597657,0.28125 c 0.02344,-0.9140625025 0.03516,-2.03906249 0.03516,-3.37499999 -0.890625,1.40625 -2.132813,2.45214842 -3.7265628,3.12890624 L 9.3866797,0.56274219 C 10.88668,-0.34839063 11.988242,-1.4411641 12.691367,-2.7067891 h -1.441406 v 0.4921875 z m 0.5625,-2.6015625 v 1.6523437 h 1.933594 v -1.6523437 z m 0,0"
         style="fill:#000000;fill-opacity:1;fill-rule:nonzero;stroke:none" />
    </g>
    <path
       id="path17"
       d="M 31.38069,0 H 42.51544"
       style="fill:none;stroke:#000000;stroke-width:0.79701;stroke-linecap:butt;stroke-linejoin:miter;stroke-miterlimit:10;stroke-dasharray:none;stroke-opacity:1"
       transform="matrix(1.3333333,0,0,-1.3333333,48.482667,74.225333)" />
    <path
       id="path18"
       d="M 3.84644,0 1.2869,0.97285 2.14626,0 1.2869,-0.97285 Z"
       style="fill:#000000;fill-opacity:1;fill-rule:nonzero;stroke:#000000;stroke-width:0.79701;stroke-linecap:butt;stroke-linejoin:miter;stroke-miterlimit:10;stroke-dasharray:none;stroke-opacity:1"
       transform="matrix(1.3333333,0,0,-1.3333333,102.57392,74.225333)" />
    <path
       id="path19"
       d="m 102.47968,7.69345 39.01947,17.61606"
       style="fill:none;stroke:#000000;stroke-width:0.79701;stroke-linecap:butt;stroke-linejoin:miter;stroke-miterlimit:10;stroke-dasharray:none;stroke-opacity:1"
       transform="matrix(1.3333333,0,0,-1.3333333,48.482667,74.225333)" />
    <path
       id="path20"
       d="M 3.84644,0 1.2869,0.97285 2.14626,0 1.2869,-0.97285 Z"
       style="fill:#000000;fill-opacity:1;fill-rule:nonzero;stroke:#000000;stroke-width:0.79701;stroke-linecap:butt;stroke-linejoin:miter;stroke-miterlimit:10;stroke-dasharray:none;stroke-opacity:1"
       transform="matrix(1.2151733,-0.5486,-0.5486,-1.2151733,234.78223,41.54748)" />
    <path
       id="path21"
       d="M 6.1566083,-2.2743543 C 6.1568686,-2.9300074 5.8484607,-3.3006892 5.0405218,-3.3054089 4.4479193,-3.302921 4.0355495,-2.987617 3.84059,-2.6127362 3.6937494,-3.1419255 3.2782175,-3.3038043 2.7379842,-3.3033904 2.119197,-3.2998655 1.7233676,-2.964236 1.5129046,-2.5834961 l 0.00301,-0.7187036 -1.10354029,0.080419 -0.005134,0.2677055 c 0.49268614,-0.00902 0.56849189,0.050918 0.56750613,0.4233626 l -0.001818,1.94077472 c 0.007622,0.32489701 -0.0816136,0.32318579 -0.55879639,0.32634793 l -0.005134,0.26770558 c 0.0155034,-0.00585912 0.54401846,-0.03727985 0.85341205,-0.03904228 0.2725278,-0.0055476 0.7876134,0.02126007 0.856523,0.03951166 l 0.00513,-0.26770558 c -0.4723606,-0.007519 -0.5615958,-0.00923 -0.5692174,-0.33412734 l 0.00431,-1.34817219 c -0.00492,-0.7865763 0.6255297,-1.1577232 1.1133937,-1.1560632 0.5247299,0.00545 0.5985129,0.4116443 0.592705,0.7947697 l -4.694e-4,1.70993507 c 0.00762,0.32489701 -0.060251,0.33283007 -0.5481151,0.33117007 l -0.00513,0.26770557 c 0,0 0.5333372,-0.04210198 0.8534121,-0.03904228 0.283209,-7.2546e-4 0.7982946,0.02608222 0.8720264,0.03365255 l 0.00513,-0.26770558 C 3.938741,-0.2667992 3.8756905,-0.2695472 3.868069,-0.59444429 l 0.00431,-1.34817211 c -0.00492,-0.7865764 0.6148484,-1.1625454 1.1027124,-1.1608854 0.5247299,0.00545 0.6091942,0.4164664 0.6033863,0.7995918 l -4.694e-4,1.7099351 c 0.00762,0.324897 -0.081614,0.32318579 -0.5587964,0.32634792 L 5.0140727,7.8400057e-5 C 5.0295761,-0.00578071 5.5580911,-0.03720145 5.8674847,-0.03896388 c 0.283209,-7.2546e-4 0.7982946,0.02608222 0.856523,0.0395116608 L 6.7291414,-0.2671578 c -0.487864,-0.00166 -0.5664179,0.001451 -0.5740395,-0.32344608 z m 4.1870537,0.5658802 c 0.152285,0.00446 0.204655,0.00239 0.203255,-0.1654037 2.6e-4,-0.6556531 -0.367464,-1.4645778 -1.4741154,-1.4627129 -0.9864092,-0.00814 -1.7370542,0.7716406 -1.7424482,1.6949993 0.00632,0.95436547 0.827795,1.69811438 1.8248855,1.71107867 1.0174161,-0.0035761 1.3897581,-0.79984794 1.3883581,-0.96763707 -10e-4,-0.0261847 -0.0041,-0.1047386 -0.119568,-0.1054128 -0.104738,0.004148 -0.119205,0.0361916 -0.142278,0.11578253 -0.233174,0.60193536 -0.8002666,0.71880611 -1.0572909,0.7184946 C 8.8626972,-0.16544909 8.5257192,-0.33043881 8.3000132,-0.59949288 8.0284712,-0.96638944 8.0108427,-1.4115284 8.0149394,-1.7054186 Z M 8.0328282,-1.9159328 c 0.073941,-1.0467116 0.7436977,-1.2200995 1.0375879,-1.2160029 0.9281809,-0.00529 0.9482969,1.0324543 0.9555559,1.2157468 z m 5.6537728,-1.2375265 c 0.0055,-0.1261011 0.0082,-0.1891517 -0.09649,-0.1850038 -0.03687,-0.00379 -0.05237,0.00207 -0.153997,0.084776 -0.0048,0.010681 -0.09681,0.072021 -0.142279,0.1157826 -0.221558,-0.1643155 -0.500982,-0.200456 -0.784191,-0.1997305 -1.064963,-0.00503 -1.331218,0.5562531 -1.321522,0.9335194 -0.0013,0.2308396 0.111685,0.4361689 0.279837,0.5763737 0.282898,0.2562989 0.578862,0.3127648 1.037793,0.3785124 0.369696,0.064036 0.977128,0.1711091 0.981327,0.67447648 -0.0041,0.29389022 -0.195271,0.63190516 -0.918797,0.63957793 -0.729385,-0.007831 -0.983712,-0.4698215 -1.124694,-0.98350741 -0.01965,-0.09888 -0.02069,-0.1250641 -0.136108,-0.1257384 -0.126101,-0.0055 -0.124027,0.046873 -0.128486,0.1991587 l 0.0053,0.92818082 c -0.0055,0.1261011 -0.0034,0.17847039 0.111997,0.17914463 0.06305,0.0027482 0.204293,-0.13921902 0.344497,-0.30737088 0.337341,0.30659421 0.73597,0.30654299 0.925122,0.31478757 0.98055,-0.0073612 1.327432,-0.51938717 1.327018,-1.05962046 0.0051,-0.26770558 -0.108937,-0.49921948 -0.320851,-0.68489748 -0.282898,-0.2562989 -0.626409,-0.3213721 -0.885507,-0.3740529 -0.586069,-0.097429 -1.098407,-0.1872868 -1.098458,-0.5859156 0.0013,-0.2308397 0.2101,-0.5223445 0.918122,-0.5241581 0.875812,-0.00321 0.925847,0.5979965 0.929321,0.8181549 0.0031,0.078554 0.103027,0.085087 0.129212,0.08405 0.130923,-0.00518 0.128849,-0.057554 0.123664,-0.1884774 z m 4.426201,0.876363 c 2.6e-4,-0.6556531 -0.334332,-1.0252979 -1.13159,-1.0251955 -0.666334,-0.00508 -1.038727,0.3925606 -1.205791,0.6771693 l -0.0027,-2.5857466 -1.123865,0.096959 0.0055,0.2725277 c 0.492686,-0.00902 0.562633,0.035415 0.561647,0.4078591 l 1.5e-4,3.84468361 c 0.0076,0.32489701 -0.08161,0.32318579 -0.558797,0.32634793 l -0.0051,0.26770558 c 0.0155,-0.005859117 0.544018,-0.03727985 0.853412,-0.03904228 0.272527,-0.0055476 0.787613,0.02126007 0.856523,0.03951166 l 0.0051,-0.26770558 c -0.47236,-0.007519 -0.561596,-0.00923 -0.569217,-0.33412734 l 0.0043,-1.34817218 c -0.0049,-0.7865763 0.625529,-1.1577232 1.113393,-1.1560632 0.52473,0.00545 0.598513,0.4116443 0.592705,0.7947697 l -4.69e-4,1.70993506 c 0.0076,0.32489701 -0.06025,0.33283007 -0.548115,0.33117007 l -0.0051,0.26770557 c 0,0 0.533337,-0.04210198 0.853412,-0.03904228 0.283209,-7.2545e-4 0.798295,0.02608222 0.872027,0.03365255 l 0.0051,-0.26770558 c -0.503367,0.004199 -0.566418,0.001451 -0.574039,-0.32344608 z m 0,0"
       style="fill:#000000;fill-opacity:1;fill-rule:nonzero;stroke:none"
       aria-label="mesh"
       transform="matrix(1.2151733,-0.5486,0.5486,1.2151733,199.30933,51.86)" />
    <path
       id="path22"
       d="m 107.50371,-6.00076 79.99022,-21.75475"
       style="fill:none;stroke:#000000;stroke-width:0.79701;stroke-linecap:butt;stroke-linejoin:miter;stroke-miterlimit:10;stroke-dasharray:none;stroke-opacity:1"
       transform="matrix(1.3333333,0,0,-1.3333333,48.482667,74.225333)" />
    <path
       id="path23"
       d="M 3.84644,0 1.2869,0.97285 2.14626,0 1.2869,-0.97285 Z"
       style="fill:#000000;fill-opacity:1;fill-rule:nonzero;stroke:#000000;stroke-width:0.79701;stroke-linecap:butt;stroke-linejoin:miter;stroke-miterlimit:10;stroke-dasharray:none;stroke-opacity:1"
       transform="matrix(1.2865333,0.34986667,0.34986667,-1.2865333,295.96964,110.55147)" />
    <path
       id="path24"
       d="M 3.5470019,-2.4948413 C 3.7621592,-2.9541387 4.1373322,-2.9590048 4.2596454,-2.9558322 L 4.2598399,-3.223076 C 4.0779078,-3.2221806 3.879509,-3.192517 3.6975769,-3.191622 3.5012607,-3.198962 3.2083241,-3.204313 3.0058572,-3.234268 l -1.945e-4,0.2672438 c 0.3217047,0.021819 0.3184348,0.2777544 0.3245855,0.3003718 -0.00208,0.037002 -0.020632,0.1027711 -0.078266,0.2034596 L 2.4201212,-0.60953607 1.4883097,-2.6515471 c 0.00823,-0.014384 -0.050296,-0.095628 -0.051288,-0.1439379 0.00218,-0.1706234 0.258115,-0.1673535 0.3917369,-0.1672562 l 1.946e-4,-0.2672438 c -0.025693,-0.00516 -0.547879,0.039688 -0.85212433,0.037411 -0.23024231,0.00189 -0.52625425,-0.014773 -0.75133856,-0.038578 l -1.9455e-4,0.2672438 c 0.41217443,-0.00278 0.51494554,0.017848 0.60829605,0.2717982 L 2.0270997,-0.08972435 C 2.0773953,0.00590337 2.1071561,0.0706803 2.2294693,0.07385293 2.388784,0.07910821 2.4186421,0.01026324 2.4567336,-0.0729658 Z m 4.6966691,0.9027979 c 6.809e-4,-0.9353534 -0.8035422,-1.7489772 -1.835516,-1.7476727 -1.0463578,-0.00693 -1.8425221,0.8168363 -1.8432031,1.7521896 -0.00376,0.92404461 0.8159409,1.66059008 1.8366059,1.66236098 1.006281,-0.0064624 1.8383569,-0.74283329 1.8421132,-1.66687788 z M 6.4079031,-0.1697919 C 6.1149665,-0.1751449 5.7295748,-0.2525146 5.4605402,-0.6165734 5.2665012,-0.92815665 5.2441756,-1.3228717 5.2372268,-1.6610431 c 0.00744,-0.3299381 0.00981,-0.7678053 0.27318,-1.0944735 0.1861947,-0.2085203 0.5008533,-0.3912505 0.8904103,-0.3878833 0.4378672,0.00237 0.752234,0.2205099 0.9103614,0.4446988 0.2135811,0.2941238 0.2297559,0.6662214 0.2315468,1.0300856 0.00179,0.3638643 -0.021119,0.77088068 -0.2310206,1.07086339 -0.2016687,0.28559864 -0.5399374,0.42616938 -0.9038016,0.42796021 z m 3.6828879,-5.0245887 -1.1245265,0.062909 0.00288,0.2785526 c 0.5005615,0.00962 0.5580978,0.042549 0.5516552,0.4207969 l -7.383e-4,3.8380337 c 0.00387,0.32686272 -0.081438,0.32577275 -0.5563069,0.32131561 l -1.946e-4,0.2672438 c 0.014384,0.00823337 0.5396456,-0.02530367 0.8408156,-0.03433517 0.2816275,0.0084279 0.5745645,0.01378048 0.8479585,0.03659246 l 1.95e-4,-0.26724381 c -0.497486,0.001694 -0.568414,0.008837 -0.572287,-0.31802578 z m 3.583739,1.9797003 -1.95e-4,0.2672438 c 0.497486,-0.00169 0.558098,0.042549 0.562964,0.4177215 l -0.005,1.2766001 c -0.0036,0.65680084 -0.426344,1.11183563 -0.997833,1.10936387 -0.679418,0.002589 -0.717218,-0.31504771 -0.710775,-0.69329599 l -0.0023,-2.46481318 -1.144068,0.080368 -1.95e-4,0.2672439 c 0.560181,0.00555 0.566331,0.028164 0.565845,0.696274 l -0.01109,1.1203608 c 0.0078,0.52010356 0.0022,1.21390586 1.241798,1.21686401 0.181932,-8.9541e-4 0.71642,-5.063e-4 1.081763,-0.62209645 l 0.01131,-0.003075 -0.0015,0.61979931 1.132759,-0.07729281 1.95e-4,-0.26724381 c -0.508795,0.004769 -0.572482,-0.050782 -0.574273,-0.41464619 l 0.006,-2.61281926 z m 8.192911,0.9418322 c 0.0036,-0.6568009 -0.316859,-1.0311756 -1.129899,-1.028684 -0.582798,6.036e-4 -0.994174,0.3189412 -1.185624,0.6867761 -0.167159,-0.5253588 -0.577153,-0.6931987 -1.111641,-0.6935878 -0.619799,-0.00148 -1.021949,0.3507846 -1.232941,0.736079 l -0.0036,-0.7277284 -1.095758,0.079375 -1.95e-4,0.2672438 c 0.486178,0.00138 0.561173,0.053857 0.56604,0.4290302 l -0.0086,1.93340096 c 0.0039,0.32686273 -0.08144,0.32577276 -0.556307,0.32131561 l -1.94e-4,0.26724381 c 0.01131,-0.00307535 0.53657,-0.03661239 0.852124,-0.03741052 0.267244,1.9455e-4 0.785265,0.02935179 0.859268,0.03351711 l 1.94e-4,-0.26724381 c -0.483102,0.009927 -0.568414,0.008837 -0.572287,-0.31802578 l 0.0092,-1.35060308 c -0.0077,-0.7873474 0.610359,-1.1497325 1.107845,-1.1514261 0.523179,0.00346 0.59689,0.4084955 0.593523,0.7980525 l 8.18e-4,1.70008326 c 0.0039,0.32686273 -0.06705,0.33400612 -0.553232,0.33262433 l -1.94e-4,0.2672438 c 0.01131,-0.00307535 0.53657,-0.03661238 0.852124,-0.03741052 0.289861,-0.0059562 0.796573,0.02627644 0.870576,0.03044176 l 1.95e-4,-0.26724381 c -0.497486,0.001694 -0.568414,0.008837 -0.572287,-0.31802578 l 0.0092,-1.35060314 c -0.0077,-0.7873473 0.621667,-1.1528078 1.107845,-1.151426 0.531412,-0.01092 0.59689,0.4084955 0.593523,0.7980525 l 8.18e-4,1.70008323 c 0.0039,0.32686272 -0.07013,0.3226974 -0.556307,0.32131561 l -1.95e-4,0.2672438 c 0.01438,0.00823337 0.536571,-0.03661238 0.840816,-0.03433517 0.292936,0.0053526 0.796573,0.02627644 0.873652,0.04175047 l 1.94e-4,-0.2672438 c -0.497486,0.001694 -0.56018,-0.005547 -0.564054,-0.33240985 z m 4.169368,0.5603931 c 0.15624,-0.00605 0.207625,0.00426 0.212881,-0.1550521 0.0036,-0.6568008 -0.36587,-1.4793588 -1.483155,-1.4791444 -0.983664,3.118e-4 -1.740744,0.7891581 -1.733192,1.7101274 -0.0089,0.9497374 0.828243,1.70582494 1.823215,1.70243784 1.020665,0.0017709 1.396421,-0.8048267 1.390368,-0.96106603 0.0052,-0.0256928 -0.0081,-0.11923781 -0.116065,-0.11417711 -0.111005,-0.00625 -0.121321,0.0451376 -0.148103,0.12529127 -0.237873,0.59906999 -0.789917,0.71276071 -1.068469,0.71564151 -0.341247,-0.00436 -0.688547,-0.16495908 -0.910362,-0.44469885 -0.277268,-0.3496747 -0.292353,-0.80708403 -0.298309,-1.09694523 z m -2.312544,-0.1969772 c 0.07786,-1.0535012 0.74507,-1.2349469 1.034932,-1.2409031 0.924044,0.00376 0.954117,1.0521968 0.969396,1.2423622 z m 0,0"
       style="fill:#000000;fill-opacity:1;fill-rule:nonzero;stroke:none"
       aria-label="volume"
       transform="matrix(1.2865333,0.34986667,-0.34986667,1.2865333,226.83333,104.332)" />
    <path
       id="path25"
       d="m 196.48955,35.96988 h 25.31244"
       style="fill:none;stroke:#000000;stroke-width:0.79701;stroke-linecap:butt;stroke-linejoin:miter;stroke-miterlimit:10;stroke-dasharray:none;stroke-opacity:1"
       transform="matrix(1.3333333,0,0,-1.3333333,48.482667,74.225333)" />
    <path
       id="path26"
       d="M 3.84644,0 1.2869,0.97285 2.14626,0 1.2869,-0.97285 Z"
       style="fill:#000000;fill-opacity:1;fill-rule:nonzero;stroke:#000000;stroke-width:0.79701;stroke-linecap:butt;stroke-linejoin:miter;stroke-miterlimit:10;stroke-dasharray:none;stroke-opacity:1"
       transform="matrix(1.3333333,0,0,-1.3333333,341.62263,26.265493)" />
    <path
       id="path27"
       d="M 298.24594,21.25084 340.4887,2.63193"
       style="fill:none;stroke:#000000;stroke-width:0.79701;stroke-linecap:butt;stroke-linejoin:miter;stroke-miterlimit:10;stroke-dasharray:none;stroke-opacity:1"
       transform="matrix(1.3333333,0,0,-1.3333333,48.482667,74.225333)" />
    <path
       id="path28"
       d="M 3.84644,0 1.2869,0.97285 2.14626,0 1.2869,-0.97285 Z"
       style="fill:#000000;fill-opacity:1;fill-rule:nonzero;stroke:#000000;stroke-width:0.79701;stroke-linecap:butt;stroke-linejoin:miter;stroke-miterlimit:10;stroke-dasharray:none;stroke-opacity:1"
       transform="matrix(1.2200267,0.53773333,0.53773333,-1.2200267,500.09216,69.669093)" />
    <path
       id="path29"
       d="m 284.04698,-29.04675 46.23967,12.08813"
       style="fill:none;stroke:#000000;stroke-width:0.79701;stroke-linecap:butt;stroke-linejoin:miter;stroke-miterlimit:10;stroke-dasharray:none;stroke-opacity:1"
       transform="matrix(1.3333333,0,0,-1.3333333,48.482667,74.225333)" />
    <path
       id="path30"
       d="M 3.84644,0 1.2869,0.97285 2.14626,0 1.2869,-0.97285 Z"
       style="fill:#000000;fill-opacity:1;fill-rule:nonzero;stroke:#000000;stroke-width:0.79701;stroke-linecap:butt;stroke-linejoin:miter;stroke-miterlimit:10;stroke-dasharray:none;stroke-opacity:1"
       transform="matrix(1.28992,-0.3372,-0.3372,-1.28992,486.3534,97.493373)" />
  </g>
</svg>
